<svg width="413" height="482" viewBox="0 0 413 482" fill="none" xmlns="http://www.w3.org/2000/svg">
<circle cx="44.0273" cy="44.0274" r="44.0273" transform="rotate(-90 44.0273 44.0274)" fill="#5DECFF" fill-opacity="0.1"/>
<circle cx="44.0273" cy="44.0244" r="33.0205" transform="rotate(-90 44.0273 44.0244)" fill="#5DECFF" fill-opacity="0.2"/>
<circle cx="44.0273" cy="44.0274" r="22.0137" transform="rotate(-90 44.0273 44.0274)" fill="#5DECFF" fill-opacity="0.2"/>
<circle cx="44.0277" cy="44.0289" r="4.40273" transform="rotate(-90 44.0277 44.0289)" fill="#5DECFF"/>
<path d="M119.652 10.0033C117.988 10.0033 116.868 10.8993 116.868 12.5633C116.868 14.1633 117.988 15.0273 119.652 15.0273C121.38 15.0273 122.5 14.1633 122.5 12.5633C122.5 10.8993 121.38 10.0033 119.652 10.0033ZM119.652 18.3873C117.604 18.3873 116.388 19.3153 116.388 21.0433C116.388 22.8033 117.604 23.7633 119.652 23.7633C121.732 23.7633 122.916 22.8033 122.916 21.0433C122.916 19.3153 121.732 18.3873 119.652 18.3873ZM119.652 27.4113C114.468 27.4113 111.492 25.1393 111.492 21.5553C111.492 18.9953 113.092 17.2033 115.3 16.6593C113.252 15.8273 112.132 14.4193 112.132 12.0833C112.132 8.59534 115.236 6.48334 119.652 6.48334C124.068 6.48334 127.172 8.59534 127.172 12.0833C127.172 14.4193 126.052 15.8273 124.004 16.6593C126.212 17.2033 127.812 18.9953 127.812 21.5553C127.812 25.1393 124.836 27.4113 119.652 27.4113ZM154.505 27.0273H150.345L146.217 12.1473H146.089V27.0273H141.609V6.86734H149.161L152.713 20.3393H152.809L156.201 6.86734H163.593V27.0273H158.729V12.1473H158.601L154.505 27.0273ZM175.051 21.0113V20.7233L172.715 21.2033C171.275 21.4913 170.379 21.8433 170.379 22.9633C170.379 23.7953 171.019 24.3073 172.011 24.3073C173.707 24.3073 175.051 23.0273 175.051 21.0113ZM179.595 17.9713V23.1553C179.595 23.8913 179.915 24.2113 180.491 24.2113C180.907 24.2113 181.259 24.1473 181.675 23.9553V26.4193C180.971 26.9313 180.075 27.3473 178.667 27.3473C176.971 27.3473 175.723 26.4513 175.307 24.8513C174.507 26.4833 172.747 27.3473 170.539 27.3473C167.691 27.3473 165.899 25.9073 165.899 23.4753C165.899 20.7553 167.947 19.6033 171.083 18.9953L175.051 18.2913V18.0353C175.051 16.6913 174.379 15.8913 172.971 15.8913C171.627 15.8913 170.955 16.7233 170.699 17.9073L166.411 17.5873C166.891 14.5473 169.163 12.4353 173.227 12.4353C176.939 12.4353 179.595 14.0993 179.595 17.9713ZM193.821 13.0113L193.533 17.3313C192.797 16.9153 192.093 16.7553 191.101 16.7553C189.181 16.7553 187.901 17.8433 187.901 20.3073V27.0273H183.293V12.8193H187.901V15.4113C188.445 13.8113 189.917 12.4353 191.837 12.4353C192.701 12.4353 193.437 12.6913 193.821 13.0113ZM194.431 19.9233C194.431 15.4433 197.663 12.4353 202.111 12.4353C206.335 12.4353 208.703 15.2193 209.055 18.6113L205.215 18.8993C204.895 16.9793 203.871 15.9553 202.143 15.9553C200.351 15.9553 199.103 17.2033 199.103 19.9233C199.103 22.6433 200.351 23.8913 202.143 23.8913C203.871 23.8913 204.895 22.8353 205.215 20.9153L209.055 21.2353C208.703 24.6593 206.335 27.4113 202.111 27.4113C197.663 27.4113 194.431 24.4353 194.431 19.9233ZM215.807 19.7953V27.0273H211.199V6.86734H215.807V15.0273C216.575 13.4593 218.303 12.4353 220.447 12.4353C224.287 12.4353 225.567 15.0913 225.567 18.1313V27.0273H220.959V19.2513C220.959 17.2033 220.287 16.0833 218.591 16.0833C216.735 16.0833 215.807 17.5553 215.807 19.7953ZM246.254 22.9953H254.638V27.0273H239.214V23.6353L244.782 19.1233C247.886 16.5953 249.198 15.3153 249.198 13.2033C249.198 11.6993 248.462 10.5793 246.638 10.5793C244.718 10.5793 243.886 11.9553 243.886 13.8753C243.886 14.6113 243.982 15.1233 244.11 15.5713L239.374 15.4433C239.246 14.8033 239.118 14.1633 239.118 13.5553C239.118 9.26734 242.222 6.48334 246.798 6.48334C251.63 6.48334 254.286 9.23534 254.286 12.9153C254.286 16.4353 252.206 18.3233 249.038 20.7873L246.254 22.9953ZM273.697 16.9473C273.697 23.6353 270.209 27.4113 264.737 27.4113C259.265 27.4113 255.777 23.6353 255.777 16.9473C255.777 10.2593 259.265 6.48334 264.737 6.48334C270.209 6.48334 273.697 10.2593 273.697 16.9473ZM268.577 16.9473C268.577 12.4993 267.457 10.3873 264.737 10.3873C262.017 10.3873 260.897 12.4993 260.897 16.9473C260.897 21.3953 262.017 23.5073 264.737 23.5073C267.457 23.5073 268.577 21.3953 268.577 16.9473ZM282.379 22.9953H290.763V27.0273H275.339V23.6353L280.907 19.1233C284.011 16.5953 285.323 15.3153 285.323 13.2033C285.323 11.6993 284.587 10.5793 282.763 10.5793C280.843 10.5793 280.011 11.9553 280.011 13.8753C280.011 14.6113 280.107 15.1233 280.235 15.5713L275.499 15.4433C275.371 14.8033 275.243 14.1633 275.243 13.5553C275.243 9.26734 278.347 6.48334 282.923 6.48334C287.755 6.48334 290.411 9.23534 290.411 12.9153C290.411 16.4353 288.331 18.3233 285.163 20.7873L282.379 22.9953ZM306.305 6.86734V18.4513H309.057V22.5153H306.305V27.0273H301.537V22.5153H291.521V18.0673L300.449 6.86734H306.305ZM301.537 11.1233L295.649 18.4513H301.537V11.1233ZM310.438 27.0273V22.0353H315.43V26.7393C315.43 29.7153 313.766 31.1873 310.438 31.2833V28.9793C311.878 28.9473 312.646 28.3393 312.646 27.0273H310.438ZM331.667 10.3233C329.011 10.3233 327.603 12.7233 327.475 16.1793C328.339 14.7713 330.099 13.8433 332.339 13.8433C336.723 13.8433 339.379 16.5633 339.379 20.4353C339.379 24.7233 336.179 27.4113 331.603 27.4113C326.035 27.4113 323.027 23.4433 323.027 17.1073C323.027 10.9313 325.939 6.48334 331.731 6.48334C336.019 6.48334 338.803 8.75534 339.187 12.7233L334.643 12.8193C334.451 11.2513 333.427 10.3233 331.667 10.3233ZM328.307 20.5313C328.307 22.3233 329.523 23.6033 331.539 23.6033C333.587 23.6033 334.771 22.3553 334.771 20.5313C334.771 18.6753 333.587 17.4593 331.507 17.4593C329.491 17.4593 328.307 18.6753 328.307 20.5313ZM346.182 19.7633V20.0833C346.182 22.3873 347.494 23.8273 349.414 23.8273C351.59 23.8273 352.646 22.2593 352.646 19.9233C352.646 17.6193 351.59 16.0513 349.414 16.0513C347.494 16.0513 346.182 17.4913 346.182 19.7633ZM346.182 24.4993V32.2113H341.574V12.8193H346.182V15.3793C346.886 13.6833 348.518 12.4353 350.982 12.4353C355.142 12.4353 357.318 15.7633 357.318 19.9233C357.318 24.1153 355.142 27.4113 350.982 27.4113C348.518 27.4113 346.886 26.1633 346.182 24.4993ZM373.08 15.2833C373.816 13.6833 375.544 12.4353 377.88 12.4353C381.752 12.4353 382.936 15.1233 382.936 18.1313V27.0273H378.328V19.2513C378.328 17.2033 377.816 16.0833 376.152 16.0833C374.36 16.0833 373.56 17.5553 373.56 19.7953V27.0273H368.92V19.2513C368.92 17.2033 368.408 16.0833 366.712 16.0833C364.952 16.0833 364.12 17.5553 364.12 19.7953V27.0273H359.512V12.8193H364.12V15.0273C364.888 13.4593 366.456 12.4353 368.6 12.4353C371.096 12.4353 372.472 13.5873 373.08 15.2833ZM168.63 72.0273H166.566V58.6353H161.07V56.9073H174.222V58.6353H168.63V72.0273ZM181.949 68.3073L183.605 68.4993C183.077 70.8753 181.325 72.3153 178.709 72.3153C175.589 72.3153 173.309 70.2033 173.309 66.9393C173.309 63.6273 175.589 61.2513 178.613 61.2513C181.949 61.2513 183.653 63.6273 183.653 66.4833V67.2753H175.301C175.397 69.3153 176.861 70.7553 178.733 70.7553C180.485 70.7553 181.517 69.9153 181.949 68.3073ZM175.349 65.9793H181.613C181.541 64.2993 180.605 62.7633 178.613 62.7633C176.717 62.7633 175.589 64.2513 175.349 65.9793ZM192.251 67.3473V66.8433L189.899 67.3473C188.243 67.7073 187.187 68.0193 187.187 69.2913C187.187 70.1793 187.787 70.8513 188.987 70.8513C190.835 70.8513 192.251 69.4593 192.251 67.3473ZM194.171 65.2593V69.9633C194.171 70.5153 194.483 70.7793 194.987 70.7793C195.227 70.7793 195.611 70.7073 195.899 70.5393V71.6193C195.539 71.9793 195.107 72.2433 194.291 72.2433C193.211 72.2433 192.443 71.4273 192.323 70.1793C191.747 71.4033 190.259 72.3153 188.555 72.3153C186.515 72.3153 185.195 71.2113 185.195 69.4113C185.195 67.4193 186.899 66.6033 189.419 66.0993L192.251 65.5233V65.1153C192.251 63.6753 191.411 62.7873 189.947 62.7873C188.435 62.7873 187.619 63.6753 187.307 64.8993L185.531 64.6593C185.939 62.6913 187.499 61.2513 189.971 61.2513C192.611 61.2513 194.171 62.5953 194.171 65.2593ZM206.226 63.5313C206.778 62.2353 208.074 61.2513 209.754 61.2513C212.49 61.2513 213.45 63.1473 213.45 65.5233V72.0273H211.458V65.6913C211.458 63.9393 210.738 62.8353 209.13 62.8353C207.642 62.8353 206.442 64.0833 206.442 66.0033V72.0273H204.45V65.6913C204.45 63.9393 203.73 62.8353 202.122 62.8353C200.634 62.8353 199.458 64.0833 199.458 66.0033V72.0273H197.466V61.5393H199.458V63.4113C199.962 62.1393 201.186 61.2513 202.794 61.2513C204.666 61.2513 205.77 62.1633 206.226 63.5313ZM232.532 72.0273H230.372C230.084 71.6193 229.868 70.5153 229.748 68.7393C229.652 67.0593 228.86 65.9313 226.796 65.9313H222.524V72.0273H220.484V56.9073H226.628C230.468 56.9073 232.316 58.6833 232.316 61.3713C232.316 63.6993 230.732 64.9233 228.884 65.1393C230.732 65.4993 231.62 66.6273 231.764 68.4033C231.956 70.6113 232.028 71.4753 232.532 72.0273ZM222.524 64.2753H226.508C229.076 64.2753 230.228 63.3153 230.228 61.4433C230.228 59.7153 229.076 58.6113 226.508 58.6113H222.524V64.2753ZM242.699 68.3073L244.355 68.4993C243.827 70.8753 242.075 72.3153 239.459 72.3153C236.339 72.3153 234.059 70.2033 234.059 66.9393C234.059 63.6273 236.339 61.2513 239.363 61.2513C242.699 61.2513 244.403 63.6273 244.403 66.4833V67.2753H236.051C236.147 69.3153 237.611 70.7553 239.483 70.7553C241.235 70.7553 242.267 69.9153 242.699 68.3073ZM236.099 65.9793H242.363C242.291 64.2993 241.355 62.7633 239.363 62.7633C237.467 62.7633 236.339 64.2513 236.099 65.9793ZM255.113 64.8273C255.113 67.0113 253.265 68.3793 250.673 68.3793C249.809 68.3793 249.017 68.2353 248.369 67.9473C248.009 68.1633 247.673 68.4993 247.673 68.9793C247.673 69.5553 248.033 69.8913 248.945 69.8913H253.049C255.329 69.8913 256.529 71.0913 256.529 72.7233C256.529 75.3393 253.601 76.3473 250.481 76.3473C247.649 76.3473 245.297 75.4593 245.297 73.5153C245.297 72.3153 246.161 71.5473 247.457 71.3073C246.497 70.9953 246.065 70.2993 246.065 69.5073C246.065 68.5953 246.713 67.9473 247.649 67.5393C246.785 66.9153 246.281 65.9793 246.281 64.8273C246.281 62.6193 248.105 61.2513 250.673 61.2513C251.993 61.2513 253.169 61.6593 253.961 62.3313C254.513 61.4913 255.497 60.8913 256.625 60.8913V62.6193C255.929 62.6193 255.137 62.7873 254.609 63.0513C254.921 63.5553 255.113 64.1553 255.113 64.8273ZM247.193 73.1313C247.193 74.4513 248.537 75.0273 250.481 75.0273C252.881 75.0273 254.609 74.4513 254.609 72.9393C254.609 71.9793 253.817 71.6433 252.593 71.6433H249.209C248.129 71.6433 247.193 72.0033 247.193 73.1313ZM253.097 64.8513C253.097 63.3633 252.185 62.5473 250.697 62.5473C249.233 62.5473 248.321 63.3633 248.321 64.8513C248.321 66.2913 249.233 67.1073 250.697 67.1073C252.185 67.1073 253.097 66.2913 253.097 64.8513ZM258.005 61.5393H259.997V72.0273H258.005V61.5393ZM257.957 59.1633V56.9073H260.021V59.1633H257.957ZM261.948 68.4993L263.628 68.3793C263.82 69.9873 264.948 70.8513 266.748 70.8513C268.14 70.8513 269.172 70.3473 269.172 69.2913C269.172 68.3073 268.476 67.9713 267.18 67.7313L265.404 67.4193C263.436 67.1073 262.26 66.2673 262.26 64.4673C262.26 62.5473 263.868 61.2513 266.292 61.2513C269.076 61.2513 270.708 62.5473 270.9 64.9713L269.292 65.0673C269.052 63.4593 268.068 62.7153 266.292 62.7153C264.972 62.7153 264.108 63.3153 264.108 64.2753C264.108 65.1153 264.636 65.5473 265.716 65.7393L267.684 66.0513C269.796 66.4113 271.044 67.2033 271.044 69.0993C271.044 71.1873 269.196 72.3153 266.748 72.3153C264.132 72.3153 262.14 71.0913 261.948 68.4993ZM273.458 69.5793V62.9793H271.874V61.8993L272.546 61.7793C273.53 61.5873 273.746 61.1073 273.986 60.0993L274.298 58.6353H275.426V61.5393H278.378V62.9793H275.426V69.3393C275.426 70.2753 275.81 70.7073 276.722 70.7073C277.394 70.7073 278.09 70.4193 278.69 70.0833V71.4273C277.922 72.0033 277.154 72.3153 276.002 72.3153C274.514 72.3153 273.458 71.6193 273.458 69.5793ZM286.89 61.7313L286.698 63.5313C286.122 63.2193 285.714 63.0993 285.066 63.0993C283.554 63.0993 282.426 64.4673 282.426 66.4833V72.0273H280.434V61.5393H282.426V63.6753C282.81 62.4753 283.89 61.2513 285.402 61.2513C286.05 61.2513 286.53 61.4193 286.89 61.7313ZM294.767 67.3473V66.8433L292.415 67.3473C290.759 67.7073 289.703 68.0193 289.703 69.2913C289.703 70.1793 290.303 70.8513 291.503 70.8513C293.351 70.8513 294.767 69.4593 294.767 67.3473ZM296.687 65.2593V69.9633C296.687 70.5153 296.999 70.7793 297.503 70.7793C297.743 70.7793 298.127 70.7073 298.415 70.5393V71.6193C298.055 71.9793 297.623 72.2433 296.807 72.2433C295.727 72.2433 294.959 71.4273 294.839 70.1793C294.263 71.4033 292.775 72.3153 291.071 72.3153C289.031 72.3153 287.711 71.2113 287.711 69.4113C287.711 67.4193 289.415 66.6033 291.935 66.0993L294.767 65.5233V65.1153C294.767 63.6753 293.927 62.7873 292.463 62.7873C290.951 62.7873 290.135 63.6753 289.823 64.8993L288.047 64.6593C288.455 62.6913 290.015 61.2513 292.487 61.2513C295.127 61.2513 296.687 62.5953 296.687 65.2593ZM300.224 69.5793V62.9793H298.64V61.8993L299.312 61.7793C300.296 61.5873 300.512 61.1073 300.752 60.0993L301.064 58.6353H302.192V61.5393H305.144V62.9793H302.192V69.3393C302.192 70.2753 302.576 70.7073 303.488 70.7073C304.16 70.7073 304.856 70.4193 305.456 70.0833V71.4273C304.688 72.0033 303.92 72.3153 302.768 72.3153C301.28 72.3153 300.224 71.6193 300.224 69.5793ZM307.2 61.5393H309.192V72.0273H307.2V61.5393ZM307.152 59.1633V56.9073H309.216V59.1633H307.152ZM313.279 66.7953C313.279 69.1233 314.455 70.7793 316.567 70.7793C318.703 70.7793 319.903 69.1233 319.903 66.7953C319.903 64.4433 318.703 62.8113 316.567 62.8113C314.455 62.8113 313.279 64.4433 313.279 66.7953ZM321.943 66.7953C321.943 70.0593 319.663 72.3153 316.567 72.3153C313.495 72.3153 311.239 70.0593 311.239 66.7953C311.239 63.5313 313.495 61.2513 316.567 61.2513C319.663 61.2513 321.943 63.5313 321.943 66.7953ZM325.997 66.0033V72.0273H324.005V61.5393H325.997V63.4113C326.501 62.1393 327.917 61.2513 329.477 61.2513C332.213 61.2513 333.317 63.0753 333.317 65.5233V72.0273H331.325V65.6913C331.325 63.9393 330.485 62.8353 328.829 62.8353C327.245 62.8353 325.997 64.0833 325.997 66.0033Z" fill="white"/>
<circle cx="44.0273" cy="175.082" r="44.0273" transform="rotate(-90 44.0273 175.082)" fill="#5DECFF" fill-opacity="0.1"/>
<circle cx="44.0273" cy="175.083" r="33.0205" transform="rotate(-90 44.0273 175.083)" fill="#5DECFF" fill-opacity="0.2"/>
<circle cx="44.0273" cy="175.082" r="22.0137" transform="rotate(-90 44.0273 175.082)" fill="#5DECFF" fill-opacity="0.2"/>
<circle cx="44.0277" cy="175.084" r="4.40273" transform="rotate(-90 44.0277 175.084)" fill="#5DECFF"/>
<path d="M119.118 143.135V139.935C121.934 139.935 123.278 138.975 124.014 136.863H127.758V157.055H122.894V143.135H119.118ZM145.001 136.895V148.479H147.753V152.543H145.001V157.055H140.233V152.543H130.217V148.095L139.145 136.895H145.001ZM140.233 141.151L134.345 148.479H140.233V141.151ZM174.2 157.055H170.04L165.912 142.175H165.784V157.055H161.304V136.895H168.856L172.408 150.367H172.504L175.896 136.895H183.288V157.055H178.424V142.175H178.296L174.2 157.055ZM194.747 151.039V150.751L192.411 151.231C190.971 151.519 190.075 151.871 190.075 152.991C190.075 153.823 190.715 154.335 191.707 154.335C193.403 154.335 194.747 153.055 194.747 151.039ZM199.291 147.999V153.183C199.291 153.919 199.611 154.239 200.187 154.239C200.603 154.239 200.955 154.175 201.371 153.983V156.447C200.667 156.959 199.771 157.375 198.363 157.375C196.667 157.375 195.419 156.479 195.003 154.879C194.203 156.511 192.443 157.375 190.235 157.375C187.387 157.375 185.595 155.935 185.595 153.503C185.595 150.783 187.643 149.631 190.779 149.023L194.747 148.319V148.063C194.747 146.719 194.075 145.919 192.667 145.919C191.323 145.919 190.651 146.751 190.395 147.935L186.107 147.615C186.587 144.575 188.859 142.463 192.923 142.463C196.635 142.463 199.291 144.127 199.291 147.999ZM213.516 143.039L213.228 147.359C212.492 146.943 211.788 146.783 210.796 146.783C208.876 146.783 207.596 147.871 207.596 150.335V157.055H202.988V142.847H207.596V145.439C208.14 143.839 209.612 142.463 211.532 142.463C212.396 142.463 213.132 142.719 213.516 143.039ZM214.126 149.951C214.126 145.471 217.358 142.463 221.806 142.463C226.03 142.463 228.398 145.247 228.75 148.639L224.91 148.927C224.59 147.007 223.566 145.983 221.838 145.983C220.046 145.983 218.798 147.231 218.798 149.951C218.798 152.671 220.046 153.919 221.838 153.919C223.566 153.919 224.59 152.863 224.91 150.943L228.75 151.263C228.398 154.687 226.03 157.439 221.806 157.439C217.358 157.439 214.126 154.463 214.126 149.951ZM235.503 149.823V157.055H230.895V136.895H235.503V145.055C236.271 143.487 237.999 142.463 240.143 142.463C243.983 142.463 245.263 145.119 245.263 148.159V157.055H240.655V149.279C240.655 147.231 239.983 146.111 238.287 146.111C236.431 146.111 235.503 147.583 235.503 149.823ZM260.199 153.023H268.583V157.055H253.159V153.663L258.727 149.151C261.831 146.623 263.143 145.343 263.143 143.231C263.143 141.727 262.407 140.607 260.583 140.607C258.663 140.607 257.831 141.983 257.831 143.903C257.831 144.639 257.927 145.151 258.055 145.599L253.319 145.471C253.191 144.831 253.063 144.191 253.063 143.583C253.063 139.295 256.167 136.511 260.743 136.511C265.575 136.511 268.231 139.263 268.231 142.943C268.231 146.463 266.151 148.351 262.983 150.815L260.199 153.023ZM287.643 146.975C287.643 153.663 284.155 157.439 278.683 157.439C273.211 157.439 269.723 153.663 269.723 146.975C269.723 140.287 273.211 136.511 278.683 136.511C284.155 136.511 287.643 140.287 287.643 146.975ZM282.523 146.975C282.523 142.527 281.403 140.415 278.683 140.415C275.963 140.415 274.843 142.527 274.843 146.975C274.843 151.423 275.963 153.535 278.683 153.535C281.403 153.535 282.523 151.423 282.523 146.975ZM296.324 153.023H304.708V157.055H289.284V153.663L294.852 149.151C297.956 146.623 299.268 145.343 299.268 143.231C299.268 141.727 298.532 140.607 296.708 140.607C294.788 140.607 293.956 141.983 293.956 143.903C293.956 144.639 294.052 145.151 294.18 145.599L289.444 145.471C289.316 144.831 289.188 144.191 289.188 143.583C289.188 139.295 292.292 136.511 296.868 136.511C301.7 136.511 304.356 139.263 304.356 142.943C304.356 146.463 302.276 148.351 299.108 150.815L296.324 153.023ZM320.251 136.895V148.479H323.003V152.543H320.251V157.055H315.483V152.543H305.467V148.095L314.395 136.895H320.251ZM315.483 141.151L309.595 148.479H315.483V141.151ZM324.383 157.055V152.063H329.375V156.767C329.375 159.743 327.711 161.215 324.383 161.311V159.007C325.823 158.975 326.591 158.367 326.591 157.055H324.383ZM345.613 140.351C342.957 140.351 341.549 142.751 341.421 146.207C342.285 144.799 344.045 143.871 346.285 143.871C350.669 143.871 353.325 146.591 353.325 150.463C353.325 154.751 350.125 157.439 345.549 157.439C339.981 157.439 336.973 153.471 336.973 147.135C336.973 140.959 339.885 136.511 345.677 136.511C349.965 136.511 352.749 138.783 353.133 142.751L348.589 142.847C348.397 141.279 347.373 140.351 345.613 140.351ZM342.253 150.559C342.253 152.351 343.469 153.631 345.485 153.631C347.533 153.631 348.717 152.383 348.717 150.559C348.717 148.703 347.533 147.487 345.453 147.487C343.437 147.487 342.253 148.703 342.253 150.559ZM360.128 149.791V150.111C360.128 152.415 361.44 153.855 363.36 153.855C365.536 153.855 366.592 152.287 366.592 149.951C366.592 147.647 365.536 146.079 363.36 146.079C361.44 146.079 360.128 147.519 360.128 149.791ZM360.128 154.527V162.239H355.52V142.847H360.128V145.407C360.832 143.711 362.464 142.463 364.928 142.463C369.088 142.463 371.264 145.791 371.264 149.951C371.264 154.143 369.088 157.439 364.928 157.439C362.464 157.439 360.832 156.191 360.128 154.527ZM387.025 145.311C387.761 143.711 389.489 142.463 391.825 142.463C395.697 142.463 396.881 145.151 396.881 148.159V157.055H392.273V149.279C392.273 147.231 391.761 146.111 390.097 146.111C388.305 146.111 387.505 147.583 387.505 149.823V157.055H382.865V149.279C382.865 147.231 382.353 146.111 380.657 146.111C378.897 146.111 378.065 147.583 378.065 149.823V157.055H373.457V142.847H378.065V145.055C378.833 143.487 380.401 142.463 382.545 142.463C385.041 142.463 386.417 143.615 387.025 145.311ZM119.88 196.655L121.752 196.535C121.872 199.295 123.768 200.711 126.312 200.711C128.568 200.711 129.984 199.751 129.984 198.095C129.984 196.703 129.072 196.031 127.104 195.647L124.104 195.071C121.872 194.639 120.336 193.439 120.336 191.087C120.336 188.447 122.424 186.647 125.736 186.647C129.528 186.647 131.712 188.663 131.736 192.071L129.84 192.167C129.768 189.671 128.256 188.255 125.76 188.255C123.576 188.255 122.352 189.287 122.352 190.967C122.352 192.455 123.336 192.935 125.088 193.271L127.824 193.799C130.584 194.327 131.976 195.527 131.976 197.951C131.976 200.735 129.576 202.343 126.312 202.343C122.592 202.343 119.88 200.303 119.88 196.655ZM136.118 196.031V202.055H134.126V186.935H136.118V193.439C136.622 192.167 138.038 191.279 139.598 191.279C142.334 191.279 143.438 193.103 143.438 195.551V202.055H141.446V195.719C141.446 193.967 140.606 192.863 138.95 192.863C137.366 192.863 136.118 194.111 136.118 196.031ZM147.4 196.823C147.4 199.151 148.576 200.807 150.688 200.807C152.824 200.807 154.024 199.151 154.024 196.823C154.024 194.471 152.824 192.839 150.688 192.839C148.576 192.839 147.4 194.471 147.4 196.823ZM156.064 196.823C156.064 200.087 153.784 202.343 150.688 202.343C147.616 202.343 145.36 200.087 145.36 196.823C145.36 193.559 147.616 191.279 150.688 191.279C153.784 191.279 156.064 193.559 156.064 196.823ZM164.582 191.759L164.39 193.559C163.814 193.247 163.406 193.127 162.758 193.127C161.246 193.127 160.118 194.495 160.118 196.511V202.055H158.126V191.567H160.118V193.703C160.502 192.503 161.582 191.279 163.094 191.279C163.742 191.279 164.222 191.447 164.582 191.759ZM166.712 199.607V193.007H165.128V191.927L165.8 191.807C166.784 191.615 167 191.135 167.24 190.127L167.552 188.663H168.68V191.567H171.632V193.007H168.68V199.367C168.68 200.303 169.064 200.735 169.976 200.735C170.648 200.735 171.344 200.447 171.944 200.111V201.455C171.176 202.031 170.408 202.343 169.256 202.343C167.768 202.343 166.712 201.647 166.712 199.607ZM173.688 186.935H175.68V202.055H173.688V186.935ZM178.399 191.567H180.391V202.055H178.399V191.567ZM178.351 189.191V186.935H180.415V189.191H178.351ZM182.342 198.527L184.022 198.407C184.214 200.015 185.342 200.879 187.142 200.879C188.534 200.879 189.566 200.375 189.566 199.319C189.566 198.335 188.87 197.999 187.574 197.759L185.798 197.447C183.83 197.135 182.654 196.295 182.654 194.495C182.654 192.575 184.262 191.279 186.686 191.279C189.47 191.279 191.102 192.575 191.294 194.999L189.686 195.095C189.446 193.487 188.462 192.743 186.686 192.743C185.366 192.743 184.502 193.343 184.502 194.303C184.502 195.143 185.03 195.575 186.11 195.767L188.078 196.079C190.19 196.439 191.438 197.231 191.438 199.127C191.438 201.215 189.59 202.343 187.142 202.343C184.526 202.343 182.534 201.119 182.342 198.527ZM193.853 199.607V193.007H192.269V191.927L192.941 191.807C193.925 191.615 194.141 191.135 194.381 190.127L194.693 188.663H195.821V191.567H198.773V193.007H195.821V199.367C195.821 200.303 196.205 200.735 197.117 200.735C197.789 200.735 198.485 200.447 199.085 200.111V201.455C198.317 202.031 197.549 202.343 196.397 202.343C194.909 202.343 193.853 201.647 193.853 199.607ZM208.703 198.335L210.359 198.527C209.831 200.903 208.079 202.343 205.463 202.343C202.343 202.343 200.063 200.231 200.063 196.967C200.063 193.655 202.343 191.279 205.367 191.279C208.703 191.279 210.407 193.655 210.407 196.511V197.303H202.055C202.151 199.343 203.615 200.783 205.487 200.783C207.239 200.783 208.271 199.943 208.703 198.335ZM202.103 196.007H208.367C208.295 194.327 207.359 192.791 205.367 192.791C203.471 192.791 202.343 194.279 202.103 196.007ZM220.468 197.111V196.511C220.468 194.231 219.028 192.887 217.132 192.887C215.068 192.887 213.916 194.423 213.916 196.823C213.916 199.223 215.068 200.759 217.132 200.759C219.028 200.759 220.468 199.415 220.468 197.111ZM220.444 202.055V199.871C219.964 201.167 218.644 202.343 216.676 202.343C213.556 202.343 211.876 199.919 211.876 196.823C211.876 193.727 213.556 191.279 216.676 191.279C218.644 191.279 219.964 192.479 220.444 193.775V186.935H222.436V202.055H220.444ZM236.166 202.055H234.102V188.663H228.606V186.935H241.758V188.663H236.166V202.055ZM249.484 198.335L251.14 198.527C250.612 200.903 248.86 202.343 246.244 202.343C243.124 202.343 240.844 200.231 240.844 196.967C240.844 193.655 243.124 191.279 246.148 191.279C249.484 191.279 251.188 193.655 251.188 196.511V197.303H242.836C242.932 199.343 244.396 200.783 246.268 200.783C248.02 200.783 249.052 199.943 249.484 198.335ZM242.884 196.007H249.148C249.076 194.327 248.14 192.791 246.148 192.791C244.252 192.791 243.124 194.279 242.884 196.007ZM259.787 197.375V196.871L257.435 197.375C255.779 197.735 254.723 198.047 254.723 199.319C254.723 200.207 255.323 200.879 256.523 200.879C258.371 200.879 259.787 199.487 259.787 197.375ZM261.707 195.287V199.991C261.707 200.543 262.019 200.807 262.523 200.807C262.763 200.807 263.147 200.735 263.435 200.567V201.647C263.075 202.007 262.643 202.271 261.827 202.271C260.747 202.271 259.979 201.455 259.859 200.207C259.283 201.431 257.795 202.343 256.091 202.343C254.051 202.343 252.731 201.239 252.731 199.439C252.731 197.447 254.435 196.631 256.955 196.127L259.787 195.551V195.143C259.787 193.703 258.947 192.815 257.483 192.815C255.971 192.815 255.155 193.703 254.843 194.927L253.067 194.687C253.475 192.719 255.035 191.279 257.507 191.279C260.147 191.279 261.707 192.623 261.707 195.287ZM273.761 193.559C274.313 192.263 275.609 191.279 277.289 191.279C280.025 191.279 280.985 193.175 280.985 195.551V202.055H278.993V195.719C278.993 193.967 278.273 192.863 276.665 192.863C275.177 192.863 273.977 194.111 273.977 196.031V202.055H271.985V195.719C271.985 193.967 271.265 192.863 269.657 192.863C268.169 192.863 266.993 194.111 266.993 196.031V202.055H265.001V191.567H266.993V193.439C267.497 192.167 268.721 191.279 270.329 191.279C272.201 191.279 273.305 192.191 273.761 193.559ZM293.011 186.935H295.291L301.579 202.055H299.371L297.547 197.615H290.659L288.883 202.055H286.843L293.011 186.935ZM294.019 189.239L291.307 195.959H296.875L294.115 189.239H294.019ZM305.219 196.031V202.055H303.227V191.567H305.219V193.439C305.723 192.167 307.139 191.279 308.699 191.279C311.435 191.279 312.539 193.103 312.539 195.551V202.055H310.547V195.719C310.547 193.967 309.707 192.863 308.051 192.863C306.467 192.863 305.219 194.111 305.219 196.031ZM317.126 196.031V202.055H315.134V191.567H317.126V193.439C317.63 192.167 319.046 191.279 320.606 191.279C323.342 191.279 324.446 193.103 324.446 195.551V202.055H322.454V195.719C322.454 193.967 321.614 192.863 319.958 192.863C318.374 192.863 317.126 194.111 317.126 196.031ZM328.408 196.823C328.408 199.151 329.584 200.807 331.696 200.807C333.832 200.807 335.032 199.151 335.032 196.823C335.032 194.471 333.832 192.839 331.696 192.839C329.584 192.839 328.408 194.471 328.408 196.823ZM337.072 196.823C337.072 200.087 334.792 202.343 331.696 202.343C328.624 202.343 326.368 200.087 326.368 196.823C326.368 193.559 328.624 191.279 331.696 191.279C334.792 191.279 337.072 193.559 337.072 196.823ZM346.19 197.591V191.567H348.182V202.055H346.19V200.207C345.686 201.455 344.342 202.343 342.758 202.343C340.022 202.343 339.014 200.543 339.014 198.095V191.567H341.006V197.903C341.006 199.655 341.774 200.783 343.43 200.783C344.99 200.783 346.19 199.535 346.19 197.591ZM352.915 196.031V202.055H350.923V191.567H352.915V193.439C353.419 192.167 354.835 191.279 356.395 191.279C359.131 191.279 360.235 193.103 360.235 195.551V202.055H358.243V195.719C358.243 193.967 357.403 192.863 355.747 192.863C354.163 192.863 352.915 194.111 352.915 196.031ZM362.157 196.823C362.157 193.487 364.365 191.279 367.533 191.279C370.605 191.279 372.261 193.343 372.477 195.863L370.725 195.983C370.557 194.135 369.453 192.887 367.509 192.887C365.541 192.887 364.197 194.399 364.197 196.823C364.197 199.247 365.541 200.759 367.509 200.759C369.453 200.759 370.557 199.439 370.725 197.591L372.477 197.759C372.261 200.303 370.605 202.343 367.533 202.343C364.365 202.343 362.157 200.159 362.157 196.823ZM382.563 198.335L384.219 198.527C383.691 200.903 381.939 202.343 379.323 202.343C376.203 202.343 373.923 200.231 373.923 196.967C373.923 193.655 376.203 191.279 379.227 191.279C382.563 191.279 384.267 193.655 384.267 196.511V197.303H375.915C376.011 199.343 377.475 200.783 379.347 200.783C381.099 200.783 382.131 199.943 382.563 198.335ZM375.963 196.007H382.227C382.155 194.327 381.219 192.791 379.227 192.791C377.331 192.791 376.203 194.279 375.963 196.007ZM394.327 197.111V196.511C394.327 194.231 392.887 192.887 390.991 192.887C388.927 192.887 387.775 194.423 387.775 196.823C387.775 199.223 388.927 200.759 390.991 200.759C392.887 200.759 394.327 199.415 394.327 197.111ZM394.303 202.055V199.871C393.823 201.167 392.503 202.343 390.535 202.343C387.415 202.343 385.735 199.919 385.735 196.823C385.735 193.727 387.415 191.279 390.535 191.279C392.503 191.279 393.823 192.479 394.303 193.775V186.935H396.295V202.055H394.303Z" fill="white"/>
<circle cx="44.0273" cy="306.137" r="44.0273" transform="rotate(-90 44.0273 306.137)" fill="#5DECFF" fill-opacity="0.1"/>
<circle cx="44.0273" cy="306.138" r="33.0205" transform="rotate(-90 44.0273 306.138)" fill="#5DECFF" fill-opacity="0.2"/>
<circle cx="44.0273" cy="306.137" r="22.0137" transform="rotate(-90 44.0273 306.137)" fill="#5DECFF" fill-opacity="0.2"/>
<circle cx="44.0277" cy="306.138" r="4.40273" transform="rotate(-90 44.0277 306.138)" fill="#5DECFF"/>
<path d="M127.321 275.189V271.989C130.137 271.989 131.481 271.029 132.217 268.917H135.961V289.109H131.097V275.189H127.321ZM145.715 285.077H154.099V289.109H138.675V285.717L144.243 281.205C147.347 278.677 148.659 277.397 148.659 275.285C148.659 273.781 147.923 272.661 146.099 272.661C144.179 272.661 143.347 274.037 143.347 275.957C143.347 276.693 143.443 277.205 143.571 277.653L138.835 277.525C138.707 276.885 138.579 276.245 138.579 275.637C138.579 271.349 141.683 268.565 146.259 268.565C151.091 268.565 153.747 271.317 153.747 274.997C153.747 278.517 151.667 280.405 148.499 282.869L145.715 285.077ZM155.349 282.933V278.901H163.669V282.933H155.349ZM163.977 275.189V271.989C166.793 271.989 168.137 271.029 168.873 268.917H172.617V289.109H167.753V275.189H163.977ZM189.86 268.949V280.533H192.612V284.597H189.86V289.109H185.092V284.597H175.076V280.149L184.004 268.949H189.86ZM185.092 273.205L179.204 280.533H185.092V273.205ZM219.059 289.109H214.899L210.771 274.229H210.643V289.109H206.163V268.949H213.715L217.267 282.421H217.363L220.755 268.949H228.147V289.109H223.283V274.229H223.155L219.059 289.109ZM239.606 283.093V282.805L237.27 283.285C235.83 283.573 234.934 283.925 234.934 285.045C234.934 285.877 235.574 286.389 236.566 286.389C238.262 286.389 239.606 285.109 239.606 283.093ZM244.15 280.053V285.237C244.15 285.973 244.47 286.293 245.046 286.293C245.462 286.293 245.814 286.229 246.23 286.037V288.501C245.526 289.013 244.63 289.429 243.222 289.429C241.526 289.429 240.278 288.533 239.862 286.933C239.062 288.565 237.302 289.429 235.094 289.429C232.246 289.429 230.454 287.989 230.454 285.557C230.454 282.837 232.502 281.685 235.638 281.077L239.606 280.373V280.117C239.606 278.773 238.934 277.973 237.526 277.973C236.182 277.973 235.51 278.805 235.254 279.989L230.966 279.669C231.446 276.629 233.718 274.517 237.782 274.517C241.494 274.517 244.15 276.181 244.15 280.053ZM258.376 275.093L258.088 279.413C257.352 278.997 256.648 278.837 255.656 278.837C253.736 278.837 252.456 279.925 252.456 282.389V289.109H247.848V274.901H252.456V277.493C253 275.893 254.472 274.517 256.392 274.517C257.256 274.517 257.992 274.773 258.376 275.093ZM258.985 282.005C258.985 277.525 262.217 274.517 266.665 274.517C270.889 274.517 273.257 277.301 273.609 280.693L269.769 280.981C269.449 279.061 268.425 278.037 266.697 278.037C264.905 278.037 263.657 279.285 263.657 282.005C263.657 284.725 264.905 285.973 266.697 285.973C268.425 285.973 269.449 284.917 269.769 282.997L273.609 283.317C273.257 286.741 270.889 289.493 266.665 289.493C262.217 289.493 258.985 286.517 258.985 282.005ZM280.362 281.877V289.109H275.754V268.949H280.362V277.109C281.13 275.541 282.858 274.517 285.002 274.517C288.842 274.517 290.122 277.173 290.122 280.213V289.109H285.514V281.333C285.514 279.285 284.842 278.165 283.146 278.165C281.29 278.165 280.362 279.637 280.362 281.877ZM310.809 285.077H319.193V289.109H303.769V285.717L309.337 281.205C312.441 278.677 313.753 277.397 313.753 275.285C313.753 273.781 313.017 272.661 311.193 272.661C309.273 272.661 308.441 274.037 308.441 275.957C308.441 276.693 308.537 277.205 308.665 277.653L303.929 277.525C303.801 276.885 303.673 276.245 303.673 275.637C303.673 271.349 306.777 268.565 311.353 268.565C316.185 268.565 318.841 271.317 318.841 274.997C318.841 278.517 316.761 280.405 313.593 282.869L310.809 285.077ZM338.252 279.029C338.252 285.717 334.764 289.493 329.292 289.493C323.82 289.493 320.332 285.717 320.332 279.029C320.332 272.341 323.82 268.565 329.292 268.565C334.764 268.565 338.252 272.341 338.252 279.029ZM333.132 279.029C333.132 274.581 332.012 272.469 329.292 272.469C326.572 272.469 325.452 274.581 325.452 279.029C325.452 283.477 326.572 285.589 329.292 285.589C332.012 285.589 333.132 283.477 333.132 279.029ZM346.934 285.077H355.318V289.109H339.894V285.717L345.462 281.205C348.566 278.677 349.878 277.397 349.878 275.285C349.878 273.781 349.142 272.661 347.318 272.661C345.398 272.661 344.566 274.037 344.566 275.957C344.566 276.693 344.662 277.205 344.79 277.653L340.054 277.525C339.926 276.885 339.798 276.245 339.798 275.637C339.798 271.349 342.902 268.565 347.478 268.565C352.31 268.565 354.966 271.317 354.966 274.997C354.966 278.517 352.886 280.405 349.718 282.869L346.934 285.077ZM370.86 268.949V280.533H373.612V284.597H370.86V289.109H366.092V284.597H356.076V280.149L365.004 268.949H370.86ZM366.092 273.205L360.204 280.533H366.092V273.205ZM180.159 326.549C180.159 331.205 177.039 334.397 172.647 334.397C168.231 334.397 165.135 331.205 165.135 326.549C165.135 321.893 168.231 318.701 172.647 318.701C177.039 318.701 180.159 321.893 180.159 326.549ZM177.999 326.549C177.999 322.853 175.911 320.477 172.647 320.477C169.383 320.477 167.271 322.853 167.271 326.549C167.271 330.245 169.383 332.621 172.647 332.621C175.911 332.621 177.999 330.245 177.999 326.549ZM189.19 325.061H184.822V334.109H182.854V325.061H181.246V323.621H182.854V322.493C182.854 320.309 184.198 318.941 186.214 318.941C187.438 318.941 188.182 319.325 188.758 319.709L188.23 321.029C187.726 320.669 187.15 320.429 186.478 320.429C185.35 320.429 184.822 321.197 184.822 322.469V323.621H189.19V322.301C189.19 320.069 190.438 318.701 192.502 318.701C193.366 318.701 194.086 318.941 194.638 319.301L194.182 320.669C193.774 320.381 193.342 320.213 192.79 320.213C191.662 320.213 191.158 321.005 191.158 322.253V323.621H193.966V325.061H191.158V334.109H189.19V325.061ZM195.526 318.989H197.518V334.109H195.526V318.989ZM200.235 323.621H202.227V334.109H200.235V323.621ZM200.187 321.245V318.989H202.251V321.245H200.187ZM206.938 328.085V334.109H204.946V323.621H206.938V325.493C207.442 324.221 208.858 323.333 210.418 323.333C213.154 323.333 214.258 325.157 214.258 327.605V334.109H212.266V327.773C212.266 326.021 211.426 324.917 209.77 324.917C208.186 324.917 206.938 326.165 206.938 328.085ZM224.82 330.389L226.476 330.581C225.948 332.957 224.196 334.397 221.58 334.397C218.46 334.397 216.18 332.285 216.18 329.021C216.18 325.709 218.46 323.333 221.484 323.333C224.82 323.333 226.524 325.709 226.524 328.565V329.357H218.172C218.268 331.397 219.732 332.837 221.604 332.837C223.356 332.837 224.388 331.997 224.82 330.389ZM218.22 328.061H224.484C224.412 326.381 223.476 324.845 221.484 324.845C219.588 324.845 218.46 326.333 218.22 328.061ZM235.091 334.109H233.003V318.989H235.091V325.469H243.779V318.989H245.867V334.109H243.779V327.173H235.091V334.109ZM255.138 329.429V328.925L252.786 329.429C251.13 329.789 250.074 330.101 250.074 331.373C250.074 332.261 250.674 332.933 251.874 332.933C253.722 332.933 255.138 331.541 255.138 329.429ZM257.058 327.341V332.045C257.058 332.597 257.37 332.861 257.874 332.861C258.114 332.861 258.498 332.789 258.786 332.621V333.701C258.426 334.061 257.994 334.325 257.178 334.325C256.098 334.325 255.33 333.509 255.21 332.261C254.634 333.485 253.146 334.397 251.442 334.397C249.402 334.397 248.082 333.293 248.082 331.493C248.082 329.501 249.786 328.685 252.306 328.181L255.138 327.605V327.197C255.138 325.757 254.298 324.869 252.834 324.869C251.322 324.869 250.506 325.757 250.194 326.981L248.418 326.741C248.826 324.773 250.386 323.333 252.858 323.333C255.498 323.333 257.058 324.677 257.058 327.341ZM259.563 328.877C259.563 325.541 261.771 323.333 264.939 323.333C268.011 323.333 269.667 325.397 269.883 327.917L268.131 328.037C267.963 326.189 266.859 324.941 264.915 324.941C262.947 324.941 261.603 326.453 261.603 328.877C261.603 331.301 262.947 332.813 264.915 332.813C266.859 332.813 267.963 331.493 268.131 329.645L269.883 329.813C269.667 332.357 268.011 334.397 264.939 334.397C261.771 334.397 259.563 332.213 259.563 328.877ZM273.923 330.317V334.109H271.931V318.989H273.923V328.373L279.203 323.621H281.699L276.875 327.917L281.915 334.109H279.563L275.387 329.021L273.923 330.317ZM289.662 329.429V328.925L287.31 329.429C285.654 329.789 284.598 330.101 284.598 331.373C284.598 332.261 285.198 332.933 286.398 332.933C288.246 332.933 289.662 331.541 289.662 329.429ZM291.582 327.341V332.045C291.582 332.597 291.894 332.861 292.398 332.861C292.638 332.861 293.022 332.789 293.31 332.621V333.701C292.95 334.061 292.518 334.325 291.702 334.325C290.622 334.325 289.854 333.509 289.734 332.261C289.158 333.485 287.67 334.397 285.966 334.397C283.926 334.397 282.606 333.293 282.606 331.493C282.606 329.501 284.31 328.685 286.83 328.181L289.662 327.605V327.197C289.662 325.757 288.822 324.869 287.358 324.869C285.846 324.869 285.03 325.757 284.718 326.981L282.942 326.741C283.35 324.773 284.91 323.333 287.382 323.333C290.022 323.333 291.582 324.677 291.582 327.341ZM295.119 331.661V325.061H293.535V323.981L294.207 323.861C295.191 323.669 295.407 323.189 295.647 322.181L295.959 320.717H297.087V323.621H300.039V325.061H297.087V331.421C297.087 332.357 297.471 332.789 298.383 332.789C299.055 332.789 299.751 332.501 300.351 332.165V333.509C299.583 334.085 298.815 334.397 297.663 334.397C296.175 334.397 295.119 333.701 295.119 331.661ZM304.087 328.085V334.109H302.095V318.989H304.087V325.493C304.591 324.221 306.007 323.333 307.567 323.333C310.303 323.333 311.407 325.157 311.407 327.605V334.109H309.415V327.773C309.415 326.021 308.575 324.917 306.919 324.917C305.335 324.917 304.087 326.165 304.087 328.085ZM315.369 328.877C315.369 331.205 316.545 332.861 318.657 332.861C320.793 332.861 321.993 331.205 321.993 328.877C321.993 326.525 320.793 324.893 318.657 324.893C316.545 324.893 315.369 326.525 315.369 328.877ZM324.033 328.877C324.033 332.141 321.753 334.397 318.657 334.397C315.585 334.397 313.329 332.141 313.329 328.877C313.329 325.613 315.585 323.333 318.657 323.333C321.753 323.333 324.033 325.613 324.033 328.877ZM328.087 328.085V334.109H326.095V323.621H328.087V325.493C328.591 324.221 330.007 323.333 331.567 323.333C334.303 323.333 335.407 325.157 335.407 327.605V334.109H333.415V327.773C333.415 326.021 332.575 324.917 330.919 324.917C329.335 324.917 328.087 326.165 328.087 328.085Z" fill="white"/>
<circle cx="44.0273" cy="437.191" r="44.0273" transform="rotate(-90 44.0273 437.191)" fill="#5DECFF" fill-opacity="0.1"/>
<circle cx="44.0273" cy="437.192" r="33.0205" transform="rotate(-90 44.0273 437.192)" fill="#5DECFF" fill-opacity="0.2"/>
<circle cx="44.0273" cy="437.191" r="22.0137" transform="rotate(-90 44.0273 437.191)" fill="#5DECFF" fill-opacity="0.2"/>
<circle cx="44.0277" cy="437.193" r="4.40273" transform="rotate(-90 44.0277 437.193)" fill="#5DECFF"/>
<path d="M160.602 408.805V405.605C163.418 405.605 164.762 404.645 165.498 402.533H169.242V422.725H164.378V408.805H160.602ZM181.462 406.917H171.606V402.565H186.742V406.277C181.526 411.493 181.014 416.357 180.982 422.725H175.67C175.766 416.037 177.398 411.333 181.462 406.917ZM207.528 422.725H203.368L199.24 407.845H199.112V422.725H194.632V402.565H202.184L205.736 416.037H205.832L209.224 402.565H216.616V422.725H211.752V407.845H211.624L207.528 422.725ZM228.075 416.709V416.421L225.739 416.901C224.299 417.189 223.403 417.541 223.403 418.661C223.403 419.493 224.043 420.005 225.035 420.005C226.731 420.005 228.075 418.725 228.075 416.709ZM232.619 413.669V418.853C232.619 419.589 232.939 419.909 233.515 419.909C233.931 419.909 234.283 419.845 234.699 419.653V422.117C233.995 422.629 233.099 423.045 231.691 423.045C229.995 423.045 228.747 422.149 228.331 420.549C227.531 422.181 225.771 423.045 223.563 423.045C220.715 423.045 218.923 421.605 218.923 419.173C218.923 416.453 220.971 415.301 224.107 414.693L228.075 413.989V413.733C228.075 412.389 227.403 411.589 225.995 411.589C224.651 411.589 223.979 412.421 223.723 413.605L219.435 413.285C219.915 410.245 222.187 408.133 226.251 408.133C229.963 408.133 232.619 409.797 232.619 413.669ZM246.845 408.709L246.557 413.029C245.821 412.613 245.117 412.453 244.125 412.453C242.205 412.453 240.925 413.541 240.925 416.005V422.725H236.317V408.517H240.925V411.109C241.469 409.509 242.941 408.133 244.861 408.133C245.725 408.133 246.461 408.389 246.845 408.709ZM247.454 415.621C247.454 411.141 250.686 408.133 255.134 408.133C259.358 408.133 261.726 410.917 262.078 414.309L258.238 414.597C257.918 412.677 256.894 411.653 255.166 411.653C253.374 411.653 252.126 412.901 252.126 415.621C252.126 418.341 253.374 419.589 255.166 419.589C256.894 419.589 257.918 418.533 258.238 416.613L262.078 416.933C261.726 420.357 259.358 423.109 255.134 423.109C250.686 423.109 247.454 420.133 247.454 415.621ZM268.831 415.493V422.725H264.223V402.565H268.831V410.725C269.599 409.157 271.327 408.133 273.471 408.133C277.311 408.133 278.591 410.789 278.591 413.829V422.725H273.983V414.949C273.983 412.901 273.311 411.781 271.615 411.781C269.759 411.781 268.831 413.253 268.831 415.493ZM293.528 418.693H301.912V422.725H286.488V419.333L292.056 414.821C295.16 412.293 296.472 411.013 296.472 408.901C296.472 407.397 295.736 406.277 293.911 406.277C291.992 406.277 291.16 407.653 291.16 409.573C291.16 410.309 291.256 410.821 291.384 411.269L286.648 411.141C286.52 410.501 286.392 409.861 286.392 409.253C286.392 404.965 289.496 402.181 294.072 402.181C298.904 402.181 301.56 404.933 301.56 408.613C301.56 412.133 299.48 414.021 296.312 416.485L293.528 418.693ZM320.971 412.645C320.971 419.333 317.483 423.109 312.011 423.109C306.539 423.109 303.051 419.333 303.051 412.645C303.051 405.957 306.539 402.181 312.011 402.181C317.483 402.181 320.971 405.957 320.971 412.645ZM315.851 412.645C315.851 408.197 314.731 406.085 312.011 406.085C309.291 406.085 308.171 408.197 308.171 412.645C308.171 417.093 309.291 419.205 312.011 419.205C314.731 419.205 315.851 417.093 315.851 412.645ZM329.653 418.693H338.037V422.725H322.613V419.333L328.181 414.821C331.285 412.293 332.597 411.013 332.597 408.901C332.597 407.397 331.861 406.277 330.036 406.277C328.117 406.277 327.285 407.653 327.285 409.573C327.285 410.309 327.381 410.821 327.509 411.269L322.773 411.141C322.645 410.501 322.517 409.861 322.517 409.253C322.517 404.965 325.621 402.181 330.197 402.181C335.029 402.181 337.685 404.933 337.685 408.613C337.685 412.133 335.605 414.021 332.437 416.485L329.653 418.693ZM353.579 402.565V414.149H356.331V418.213H353.579V422.725H348.811V418.213H338.795V413.765L347.723 402.565H353.579ZM348.811 406.821L342.923 414.149H348.811V406.821ZM143.247 460.381H146.631C149.271 460.381 150.543 459.301 150.543 457.333C150.543 455.389 149.271 454.309 146.631 454.309H143.247V460.381ZM143.247 462.085V467.725H141.183V452.605H146.679C150.423 452.605 152.559 454.381 152.559 457.333C152.559 460.309 150.423 462.085 146.679 462.085H143.247ZM160.879 457.429L160.687 459.229C160.111 458.917 159.703 458.797 159.055 458.797C157.543 458.797 156.415 460.165 156.415 462.181V467.725H154.423V457.237H156.415V459.373C156.799 458.173 157.879 456.949 159.391 456.949C160.039 456.949 160.519 457.117 160.879 457.429ZM170.031 464.005L171.687 464.197C171.159 466.573 169.407 468.013 166.791 468.013C163.671 468.013 161.391 465.901 161.391 462.637C161.391 459.325 163.671 456.949 166.695 456.949C170.031 456.949 171.735 459.325 171.735 462.181V462.973H163.383C163.479 465.013 164.943 466.453 166.815 466.453C168.567 466.453 169.599 465.613 170.031 464.005ZM163.431 461.677H169.695C169.623 459.997 168.687 458.461 166.695 458.461C164.799 458.461 163.671 459.949 163.431 461.677ZM173.131 464.197L174.811 464.077C175.003 465.685 176.131 466.549 177.931 466.549C179.323 466.549 180.355 466.045 180.355 464.989C180.355 464.005 179.659 463.669 178.363 463.429L176.587 463.117C174.619 462.805 173.443 461.965 173.443 460.165C173.443 458.245 175.051 456.949 177.475 456.949C180.259 456.949 181.891 458.245 182.083 460.669L180.475 460.765C180.235 459.157 179.251 458.413 177.475 458.413C176.155 458.413 175.291 459.013 175.291 459.973C175.291 460.813 175.819 461.245 176.899 461.437L178.867 461.749C180.979 462.109 182.227 462.901 182.227 464.797C182.227 466.885 180.379 468.013 177.931 468.013C175.315 468.013 173.323 466.789 173.131 464.197ZM192.297 464.005L193.953 464.197C193.425 466.573 191.673 468.013 189.057 468.013C185.937 468.013 183.657 465.901 183.657 462.637C183.657 459.325 185.937 456.949 188.961 456.949C192.297 456.949 194.001 459.325 194.001 462.181V462.973H185.649C185.745 465.013 187.209 466.453 189.081 466.453C190.833 466.453 191.865 465.613 192.297 464.005ZM185.697 461.677H191.961C191.889 459.997 190.953 458.461 188.961 458.461C187.065 458.461 185.937 459.949 185.697 461.677ZM198.063 461.701V467.725H196.071V457.237H198.063V459.109C198.567 457.837 199.983 456.949 201.543 456.949C204.279 456.949 205.383 458.773 205.383 461.221V467.725H203.391V461.389C203.391 459.637 202.551 458.533 200.895 458.533C199.311 458.533 198.063 459.781 198.063 461.701ZM208.337 465.277V458.677H206.753V457.597L207.425 457.477C208.409 457.285 208.625 456.805 208.865 455.797L209.177 454.333H210.305V457.237H213.257V458.677H210.305V465.037C210.305 465.973 210.689 466.405 211.601 466.405C212.273 466.405 212.969 466.117 213.569 465.781V467.125C212.801 467.701 212.033 468.013 210.881 468.013C209.393 468.013 208.337 467.317 208.337 465.277ZM221.841 463.045V462.541L219.489 463.045C217.833 463.405 216.777 463.717 216.777 464.989C216.777 465.877 217.377 466.549 218.577 466.549C220.425 466.549 221.841 465.157 221.841 463.045ZM223.761 460.957V465.661C223.761 466.213 224.073 466.477 224.577 466.477C224.817 466.477 225.201 466.405 225.489 466.237V467.317C225.129 467.677 224.697 467.941 223.881 467.941C222.801 467.941 222.033 467.125 221.913 465.877C221.337 467.101 219.849 468.013 218.145 468.013C216.105 468.013 214.785 466.909 214.785 465.109C214.785 463.117 216.489 462.301 219.009 461.797L221.841 461.221V460.813C221.841 459.373 221.001 458.485 219.537 458.485C218.025 458.485 217.209 459.373 216.897 460.597L215.121 460.357C215.529 458.389 217.089 456.949 219.561 456.949C222.201 456.949 223.761 458.293 223.761 460.957ZM227.298 465.277V458.677H225.714V457.597L226.386 457.477C227.37 457.285 227.586 456.805 227.826 455.797L228.138 454.333H229.266V457.237H232.218V458.677H229.266V465.037C229.266 465.973 229.65 466.405 230.562 466.405C231.234 466.405 231.93 466.117 232.53 465.781V467.125C231.762 467.701 230.994 468.013 229.842 468.013C228.354 468.013 227.298 467.317 227.298 465.277ZM234.274 457.237H236.266V467.725H234.274V457.237ZM234.226 454.861V452.605H236.29V454.861H234.226ZM240.353 462.493C240.353 464.821 241.529 466.477 243.641 466.477C245.777 466.477 246.977 464.821 246.977 462.493C246.977 460.141 245.777 458.509 243.641 458.509C241.529 458.509 240.353 460.141 240.353 462.493ZM249.017 462.493C249.017 465.757 246.737 468.013 243.641 468.013C240.569 468.013 238.313 465.757 238.313 462.493C238.313 459.229 240.569 456.949 243.641 456.949C246.737 456.949 249.017 459.229 249.017 462.493ZM253.071 461.701V467.725H251.079V457.237H253.071V459.109C253.575 457.837 254.991 456.949 256.551 456.949C259.287 456.949 260.391 458.773 260.391 461.221V467.725H258.399V461.389C258.399 459.637 257.559 458.533 255.903 458.533C254.319 458.533 253.071 459.781 253.071 461.701ZM273.826 463.045V462.541L271.474 463.045C269.818 463.405 268.762 463.717 268.762 464.989C268.762 465.877 269.362 466.549 270.562 466.549C272.41 466.549 273.826 465.157 273.826 463.045ZM275.746 460.957V465.661C275.746 466.213 276.058 466.477 276.562 466.477C276.802 466.477 277.186 466.405 277.474 466.237V467.317C277.114 467.677 276.682 467.941 275.866 467.941C274.786 467.941 274.018 467.125 273.898 465.877C273.322 467.101 271.834 468.013 270.13 468.013C268.09 468.013 266.77 466.909 266.77 465.109C266.77 463.117 268.474 462.301 270.994 461.797L273.826 461.221V460.813C273.826 459.373 272.986 458.485 271.522 458.485C270.01 458.485 269.194 459.373 268.882 460.597L267.106 460.357C267.514 458.389 269.074 456.949 271.546 456.949C274.186 456.949 275.746 458.293 275.746 460.957ZM281.032 461.701V467.725H279.04V457.237H281.032V459.109C281.536 457.837 282.952 456.949 284.512 456.949C287.248 456.949 288.352 458.773 288.352 461.221V467.725H286.36V461.389C286.36 459.637 285.52 458.533 283.864 458.533C282.28 458.533 281.032 459.781 281.032 461.701ZM298.866 462.781V462.181C298.866 459.901 297.426 458.557 295.53 458.557C293.466 458.557 292.314 460.093 292.314 462.493C292.314 464.893 293.466 466.429 295.53 466.429C297.426 466.429 298.866 465.085 298.866 462.781ZM298.842 467.725V465.541C298.362 466.837 297.042 468.013 295.074 468.013C291.954 468.013 290.274 465.589 290.274 462.493C290.274 459.397 291.954 456.949 295.074 456.949C297.042 456.949 298.362 458.149 298.842 459.445V452.605H300.834V467.725H298.842ZM320.012 467.725H317.852C317.564 467.317 317.348 466.213 317.228 464.437C317.132 462.757 316.34 461.629 314.276 461.629H310.004V467.725H307.964V452.605H314.108C317.948 452.605 319.796 454.381 319.796 457.069C319.796 459.397 318.212 460.621 316.364 460.837C318.212 461.197 319.1 462.325 319.244 464.101C319.436 466.309 319.508 467.173 320.012 467.725ZM310.004 459.973H313.988C316.556 459.973 317.708 459.013 317.708 457.141C317.708 455.413 316.556 454.309 313.988 454.309H310.004V459.973ZM330.18 464.005L331.836 464.197C331.308 466.573 329.556 468.013 326.94 468.013C323.82 468.013 321.54 465.901 321.54 462.637C321.54 459.325 323.82 456.949 326.844 456.949C330.18 456.949 331.884 459.325 331.884 462.181V462.973H323.532C323.628 465.013 325.092 466.453 326.964 466.453C328.716 466.453 329.748 465.613 330.18 464.005ZM323.58 461.677H329.844C329.772 459.997 328.836 458.461 326.844 458.461C324.948 458.461 323.82 459.949 323.58 461.677ZM333.28 464.197L334.96 464.077C335.152 465.685 336.28 466.549 338.08 466.549C339.472 466.549 340.504 466.045 340.504 464.989C340.504 464.005 339.808 463.669 338.512 463.429L336.736 463.117C334.768 462.805 333.592 461.965 333.592 460.165C333.592 458.245 335.2 456.949 337.624 456.949C340.408 456.949 342.04 458.245 342.232 460.669L340.624 460.765C340.384 459.157 339.4 458.413 337.624 458.413C336.304 458.413 335.44 459.013 335.44 459.973C335.44 460.813 335.968 461.245 337.048 461.437L339.016 461.749C341.128 462.109 342.376 462.901 342.376 464.797C342.376 466.885 340.528 468.013 338.08 468.013C335.464 468.013 333.472 466.789 333.28 464.197ZM351.487 463.261V457.237H353.479V467.725H351.487V465.877C350.983 467.125 349.639 468.013 348.055 468.013C345.319 468.013 344.311 466.213 344.311 463.765V457.237H346.303V463.573C346.303 465.325 347.071 466.453 348.727 466.453C350.287 466.453 351.487 465.205 351.487 463.261ZM356.22 452.605H358.212V467.725H356.22V452.605ZM361.291 465.277V458.677H359.707V457.597L360.379 457.477C361.363 457.285 361.579 456.805 361.819 455.797L362.131 454.333H363.259V457.237H366.211V458.677H363.259V465.037C363.259 465.973 363.643 466.405 364.555 466.405C365.227 466.405 365.923 466.117 366.523 465.781V467.125C365.755 467.701 364.987 468.013 363.835 468.013C362.347 468.013 361.291 467.317 361.291 465.277ZM367.498 464.197L369.178 464.077C369.37 465.685 370.498 466.549 372.298 466.549C373.69 466.549 374.722 466.045 374.722 464.989C374.722 464.005 374.026 463.669 372.73 463.429L370.954 463.117C368.986 462.805 367.81 461.965 367.81 460.165C367.81 458.245 369.418 456.949 371.842 456.949C374.626 456.949 376.258 458.245 376.45 460.669L374.842 460.765C374.602 459.157 373.618 458.413 371.842 458.413C370.522 458.413 369.658 459.013 369.658 459.973C369.658 460.813 370.186 461.245 371.266 461.437L373.234 461.749C375.346 462.109 376.594 462.901 376.594 464.797C376.594 466.885 374.746 468.013 372.298 468.013C369.682 468.013 367.69 466.789 367.498 464.197Z" fill="white"/>
</svg>
