<svg width="1728" height="293" viewBox="0 0 1728 293" fill="none" xmlns="http://www.w3.org/2000/svg">
<g clip-path="url(#clip0_244_35)">
<path d="M-8 101H1720" stroke="white" stroke-opacity="0.5" stroke-width="2" stroke-dasharray="4 4"/>
<path d="M274.5 200C329.728 200 374.5 155.228 374.5 100C374.5 44.7715 329.728 0 274.5 0C219.272 0 174.5 44.7715 174.5 100C174.5 155.228 219.272 200 274.5 200Z" fill="#5DECFF" fill-opacity="0.1"/>
<path d="M274.5 175C315.921 175 349.5 141.421 349.5 100C349.5 58.5786 315.921 25 274.5 25C233.079 25 199.5 58.5786 199.5 100C199.5 141.421 233.079 175 274.5 175Z" fill="#5DECFF" fill-opacity="0.2"/>
<path d="M274.5 150C302.114 150 324.5 127.614 324.5 100C324.5 72.3858 302.114 50 274.5 50C246.886 50 224.5 72.3858 224.5 100C224.5 127.614 246.886 150 274.5 150Z" fill="#5DECFF" fill-opacity="0.2"/>
<path d="M274.5 110C280.023 110 284.5 105.523 284.5 100C284.5 94.4772 280.023 90 274.5 90C268.977 90 264.5 94.4772 264.5 100C264.5 105.523 268.977 110 274.5 110Z" fill="#5DECFF"/>
<path d="M667.5 200C722.728 200 767.5 155.228 767.5 100C767.5 44.7715 722.728 0 667.5 0C612.272 0 567.5 44.7715 567.5 100C567.5 155.228 612.272 200 667.5 200Z" fill="#5DECFF" fill-opacity="0.1"/>
<path d="M667.5 175C708.921 175 742.5 141.421 742.5 100C742.5 58.5786 708.921 25 667.5 25C626.079 25 592.5 58.5786 592.5 100C592.5 141.421 626.079 175 667.5 175Z" fill="#5DECFF" fill-opacity="0.2"/>
<path d="M667.5 150C695.114 150 717.5 127.614 717.5 100C717.5 72.3858 695.114 50 667.5 50C639.886 50 617.5 72.3858 617.5 100C617.5 127.614 639.886 150 667.5 150Z" fill="#5DECFF" fill-opacity="0.2"/>
<path d="M667.5 110C673.023 110 677.5 105.523 677.5 100C677.5 94.4772 673.023 90 667.5 90C661.977 90 657.5 94.4772 657.5 100C657.5 105.523 661.977 110 667.5 110Z" fill="#5DECFF"/>
<path d="M1060.5 200C1115.73 200 1160.5 155.228 1160.5 100C1160.5 44.7715 1115.73 0 1060.5 0C1005.27 0 960.5 44.7715 960.5 100C960.5 155.228 1005.27 200 1060.5 200Z" fill="#5DECFF" fill-opacity="0.1"/>
<path d="M1060.5 175C1101.92 175 1135.5 141.421 1135.5 100C1135.5 58.5786 1101.92 25 1060.5 25C1019.08 25 985.5 58.5786 985.5 100C985.5 141.421 1019.08 175 1060.5 175Z" fill="#5DECFF" fill-opacity="0.2"/>
<path d="M1060.5 150C1088.11 150 1110.5 127.614 1110.5 100C1110.5 72.3858 1088.11 50 1060.5 50C1032.89 50 1010.5 72.3858 1010.5 100C1010.5 127.614 1032.89 150 1060.5 150Z" fill="#5DECFF" fill-opacity="0.2"/>
<path d="M1060.5 110C1066.02 110 1070.5 105.523 1070.5 100C1070.5 94.4772 1066.02 90 1060.5 90C1054.98 90 1050.5 94.4772 1050.5 100C1050.5 105.523 1054.98 110 1060.5 110Z" fill="#5DECFF"/>
<path d="M1453.5 200C1508.73 200 1553.5 155.228 1553.5 100C1553.5 44.7715 1508.73 0 1453.5 0C1398.27 0 1353.5 44.7715 1353.5 100C1353.5 155.228 1398.27 200 1453.5 200Z" fill="#5DECFF" fill-opacity="0.1"/>
<path d="M1453.5 175C1494.92 175 1528.5 141.421 1528.5 100C1528.5 58.5786 1494.92 25 1453.5 25C1412.08 25 1378.5 58.5786 1378.5 100C1378.5 141.421 1412.08 175 1453.5 175Z" fill="#5DECFF" fill-opacity="0.2"/>
<path d="M1453.5 150C1481.11 150 1503.5 127.614 1503.5 100C1503.5 72.3858 1481.11 50 1453.5 50C1425.89 50 1403.5 72.3858 1403.5 100C1403.5 127.614 1425.89 150 1453.5 150Z" fill="#5DECFF" fill-opacity="0.2"/>
<path d="M1453.5 110C1459.02 110 1463.5 105.523 1463.5 100C1463.5 94.4772 1459.02 90 1453.5 90C1447.98 90 1443.5 94.4772 1443.5 100C1443.5 105.523 1447.98 110 1453.5 110Z" fill="#5DECFF"/>
<path d="M148.598 218.976C146.934 218.976 145.814 219.872 145.814 221.536C145.814 223.136 146.934 224 148.598 224C150.326 224 151.446 223.136 151.446 221.536C151.446 219.872 150.326 218.976 148.598 218.976ZM148.598 227.36C146.55 227.36 145.334 228.288 145.334 230.016C145.334 231.776 146.55 232.736 148.598 232.736C150.678 232.736 151.862 231.776 151.862 230.016C151.862 228.288 150.678 227.36 148.598 227.36ZM148.598 236.384C143.414 236.384 140.438 234.112 140.438 230.528C140.438 227.968 142.038 226.176 144.246 225.632C142.198 224.8 141.078 223.392 141.078 221.056C141.078 217.568 144.182 215.456 148.598 215.456C153.014 215.456 156.118 217.568 156.118 221.056C156.118 223.392 154.998 224.8 152.95 225.632C155.158 226.176 156.758 227.968 156.758 230.528C156.758 234.112 153.782 236.384 148.598 236.384ZM183.45 236H179.29L175.162 221.12H175.034V236H170.554V215.84H178.106L181.658 229.312H181.754L185.146 215.84H192.538V236H187.674V221.12H187.546L183.45 236ZM203.997 229.984V229.696L201.661 230.176C200.221 230.464 199.325 230.816 199.325 231.936C199.325 232.768 199.965 233.28 200.957 233.28C202.653 233.28 203.997 232 203.997 229.984ZM208.541 226.944V232.128C208.541 232.864 208.861 233.184 209.437 233.184C209.853 233.184 210.205 233.12 210.621 232.928V235.392C209.917 235.904 209.021 236.32 207.613 236.32C205.917 236.32 204.669 235.424 204.253 233.824C203.453 235.456 201.693 236.32 199.485 236.32C196.637 236.32 194.845 234.88 194.845 232.448C194.845 229.728 196.893 228.576 200.029 227.968L203.997 227.264V227.008C203.997 225.664 203.325 224.864 201.917 224.864C200.573 224.864 199.901 225.696 199.645 226.88L195.357 226.56C195.837 223.52 198.109 221.408 202.173 221.408C205.885 221.408 208.541 223.072 208.541 226.944ZM222.766 221.984L222.478 226.304C221.742 225.888 221.038 225.728 220.046 225.728C218.126 225.728 216.846 226.816 216.846 229.28V236H212.238V221.792H216.846V224.384C217.39 222.784 218.862 221.408 220.782 221.408C221.646 221.408 222.382 221.664 222.766 221.984ZM223.376 228.896C223.376 224.416 226.608 221.408 231.056 221.408C235.28 221.408 237.648 224.192 238 227.584L234.16 227.872C233.84 225.952 232.816 224.928 231.088 224.928C229.296 224.928 228.048 226.176 228.048 228.896C228.048 231.616 229.296 232.864 231.088 232.864C232.816 232.864 233.84 231.808 234.16 229.888L238 230.208C237.648 233.632 235.28 236.384 231.056 236.384C226.608 236.384 223.376 233.408 223.376 228.896ZM244.753 228.768V236H240.145V215.84H244.753V224C245.521 222.432 247.249 221.408 249.393 221.408C253.233 221.408 254.513 224.064 254.513 227.104V236H249.905V228.224C249.905 226.176 249.233 225.056 247.537 225.056C245.681 225.056 244.753 226.528 244.753 228.768ZM275.199 231.968H283.583V236H268.159V232.608L273.727 228.096C276.831 225.568 278.143 224.288 278.143 222.176C278.143 220.672 277.407 219.552 275.583 219.552C273.663 219.552 272.831 220.928 272.831 222.848C272.831 223.584 272.927 224.096 273.055 224.544L268.319 224.416C268.191 223.776 268.063 223.136 268.063 222.528C268.063 218.24 271.167 215.456 275.743 215.456C280.575 215.456 283.231 218.208 283.231 221.888C283.231 225.408 281.151 227.296 277.983 229.76L275.199 231.968ZM302.643 225.92C302.643 232.608 299.155 236.384 293.683 236.384C288.211 236.384 284.723 232.608 284.723 225.92C284.723 219.232 288.211 215.456 293.683 215.456C299.155 215.456 302.643 219.232 302.643 225.92ZM297.523 225.92C297.523 221.472 296.403 219.36 293.683 219.36C290.963 219.36 289.843 221.472 289.843 225.92C289.843 230.368 290.963 232.48 293.683 232.48C296.403 232.48 297.523 230.368 297.523 225.92ZM311.324 231.968H319.708V236H304.284V232.608L309.852 228.096C312.956 225.568 314.268 224.288 314.268 222.176C314.268 220.672 313.532 219.552 311.708 219.552C309.788 219.552 308.956 220.928 308.956 222.848C308.956 223.584 309.052 224.096 309.18 224.544L304.444 224.416C304.316 223.776 304.188 223.136 304.188 222.528C304.188 218.24 307.292 215.456 311.868 215.456C316.7 215.456 319.356 218.208 319.356 221.888C319.356 225.408 317.276 227.296 314.108 229.76L311.324 231.968ZM335.251 215.84V227.424H338.003V231.488H335.251V236H330.483V231.488H320.467V227.04L329.395 215.84H335.251ZM330.483 220.096L324.595 227.424H330.483V220.096ZM339.383 236V231.008H344.375V235.712C344.375 238.688 342.711 240.16 339.383 240.256V237.952C340.823 237.92 341.591 237.312 341.591 236H339.383ZM360.613 219.296C357.957 219.296 356.549 221.696 356.421 225.152C357.285 223.744 359.045 222.816 361.285 222.816C365.669 222.816 368.325 225.536 368.325 229.408C368.325 233.696 365.125 236.384 360.549 236.384C354.981 236.384 351.973 232.416 351.973 226.08C351.973 219.904 354.885 215.456 360.677 215.456C364.965 215.456 367.749 217.728 368.133 221.696L363.589 221.792C363.397 220.224 362.373 219.296 360.613 219.296ZM357.253 229.504C357.253 231.296 358.469 232.576 360.485 232.576C362.533 232.576 363.717 231.328 363.717 229.504C363.717 227.648 362.533 226.432 360.453 226.432C358.437 226.432 357.253 227.648 357.253 229.504ZM375.128 228.736V229.056C375.128 231.36 376.44 232.8 378.36 232.8C380.536 232.8 381.592 231.232 381.592 228.896C381.592 226.592 380.536 225.024 378.36 225.024C376.44 225.024 375.128 226.464 375.128 228.736ZM375.128 233.472V241.184H370.52V221.792H375.128V224.352C375.832 222.656 377.464 221.408 379.928 221.408C384.088 221.408 386.264 224.736 386.264 228.896C386.264 233.088 384.088 236.384 379.928 236.384C377.464 236.384 375.832 235.136 375.128 233.472ZM402.025 224.256C402.761 222.656 404.489 221.408 406.825 221.408C410.697 221.408 411.881 224.096 411.881 227.104V236H407.273V228.224C407.273 226.176 406.761 225.056 405.097 225.056C403.305 225.056 402.505 226.528 402.505 228.768V236H397.865V228.224C397.865 226.176 397.353 225.056 395.657 225.056C393.897 225.056 393.065 226.528 393.065 228.768V236H388.457V221.792H393.065V224C393.833 222.432 395.401 221.408 397.545 221.408C400.041 221.408 401.417 222.56 402.025 224.256ZM197.576 281H195.512V267.608H190.016V265.88H203.168V267.608H197.576V281ZM210.895 277.28L212.551 277.472C212.023 279.848 210.271 281.288 207.655 281.288C204.535 281.288 202.255 279.176 202.255 275.912C202.255 272.6 204.535 270.224 207.559 270.224C210.895 270.224 212.599 272.6 212.599 275.456V276.248H204.247C204.343 278.288 205.807 279.728 207.679 279.728C209.431 279.728 210.463 278.888 210.895 277.28ZM204.295 274.952H210.559C210.487 273.272 209.551 271.736 207.559 271.736C205.663 271.736 204.535 273.224 204.295 274.952ZM221.197 276.32V275.816L218.845 276.32C217.189 276.68 216.133 276.992 216.133 278.264C216.133 279.152 216.733 279.824 217.933 279.824C219.781 279.824 221.197 278.432 221.197 276.32ZM223.117 274.232V278.936C223.117 279.488 223.429 279.752 223.933 279.752C224.173 279.752 224.557 279.68 224.845 279.512V280.592C224.485 280.952 224.053 281.216 223.237 281.216C222.157 281.216 221.389 280.4 221.269 279.152C220.693 280.376 219.205 281.288 217.501 281.288C215.461 281.288 214.141 280.184 214.141 278.384C214.141 276.392 215.845 275.576 218.365 275.072L221.197 274.496V274.088C221.197 272.648 220.357 271.76 218.893 271.76C217.381 271.76 216.565 272.648 216.253 273.872L214.477 273.632C214.885 271.664 216.445 270.224 218.917 270.224C221.557 270.224 223.117 271.568 223.117 274.232ZM235.171 272.504C235.723 271.208 237.019 270.224 238.699 270.224C241.435 270.224 242.395 272.12 242.395 274.496V281H240.403V274.664C240.403 272.912 239.683 271.808 238.075 271.808C236.587 271.808 235.387 273.056 235.387 274.976V281H233.395V274.664C233.395 272.912 232.675 271.808 231.067 271.808C229.579 271.808 228.403 273.056 228.403 274.976V281H226.411V270.512H228.403V272.384C228.907 271.112 230.131 270.224 231.739 270.224C233.611 270.224 234.715 271.136 235.171 272.504ZM261.477 281H259.317C259.029 280.592 258.813 279.488 258.693 277.712C258.597 276.032 257.805 274.904 255.741 274.904H251.469V281H249.429V265.88H255.573C259.413 265.88 261.261 267.656 261.261 270.344C261.261 272.672 259.677 273.896 257.829 274.112C259.677 274.472 260.565 275.6 260.709 277.376C260.901 279.584 260.973 280.448 261.477 281ZM251.469 273.248H255.453C258.021 273.248 259.173 272.288 259.173 270.416C259.173 268.688 258.021 267.584 255.453 267.584H251.469V273.248ZM271.645 277.28L273.301 277.472C272.773 279.848 271.021 281.288 268.405 281.288C265.285 281.288 263.005 279.176 263.005 275.912C263.005 272.6 265.285 270.224 268.309 270.224C271.645 270.224 273.349 272.6 273.349 275.456V276.248H264.997C265.093 278.288 266.557 279.728 268.429 279.728C270.181 279.728 271.213 278.888 271.645 277.28ZM265.045 274.952H271.309C271.237 273.272 270.301 271.736 268.309 271.736C266.413 271.736 265.285 273.224 265.045 274.952ZM284.059 273.8C284.059 275.984 282.211 277.352 279.619 277.352C278.755 277.352 277.963 277.208 277.315 276.92C276.955 277.136 276.619 277.472 276.619 277.952C276.619 278.528 276.979 278.864 277.891 278.864H281.995C284.275 278.864 285.475 280.064 285.475 281.696C285.475 284.312 282.547 285.32 279.427 285.32C276.595 285.32 274.243 284.432 274.243 282.488C274.243 281.288 275.107 280.52 276.403 280.28C275.443 279.968 275.011 279.272 275.011 278.48C275.011 277.568 275.659 276.92 276.595 276.512C275.731 275.888 275.227 274.952 275.227 273.8C275.227 271.592 277.051 270.224 279.619 270.224C280.939 270.224 282.115 270.632 282.907 271.304C283.459 270.464 284.443 269.864 285.571 269.864V271.592C284.875 271.592 284.083 271.76 283.555 272.024C283.867 272.528 284.059 273.128 284.059 273.8ZM276.139 282.104C276.139 283.424 277.483 284 279.427 284C281.827 284 283.555 283.424 283.555 281.912C283.555 280.952 282.763 280.616 281.539 280.616H278.155C277.075 280.616 276.139 280.976 276.139 282.104ZM282.043 273.824C282.043 272.336 281.131 271.52 279.643 271.52C278.179 271.52 277.267 272.336 277.267 273.824C277.267 275.264 278.179 276.08 279.643 276.08C281.131 276.08 282.043 275.264 282.043 273.824ZM286.95 270.512H288.942V281H286.95V270.512ZM286.902 268.136V265.88H288.966V268.136H286.902ZM290.893 277.472L292.573 277.352C292.765 278.96 293.893 279.824 295.693 279.824C297.085 279.824 298.117 279.32 298.117 278.264C298.117 277.28 297.421 276.944 296.125 276.704L294.349 276.392C292.381 276.08 291.205 275.24 291.205 273.44C291.205 271.52 292.813 270.224 295.237 270.224C298.021 270.224 299.653 271.52 299.845 273.944L298.237 274.04C297.997 272.432 297.013 271.688 295.237 271.688C293.917 271.688 293.053 272.288 293.053 273.248C293.053 274.088 293.581 274.52 294.661 274.712L296.629 275.024C298.741 275.384 299.989 276.176 299.989 278.072C299.989 280.16 298.141 281.288 295.693 281.288C293.077 281.288 291.085 280.064 290.893 277.472ZM302.404 278.552V271.952H300.82V270.872L301.492 270.752C302.476 270.56 302.692 270.08 302.932 269.072L303.244 267.608H304.372V270.512H307.324V271.952H304.372V278.312C304.372 279.248 304.756 279.68 305.668 279.68C306.34 279.68 307.036 279.392 307.636 279.056V280.4C306.868 280.976 306.1 281.288 304.948 281.288C303.46 281.288 302.404 280.592 302.404 278.552ZM315.836 270.704L315.644 272.504C315.068 272.192 314.66 272.072 314.012 272.072C312.5 272.072 311.372 273.44 311.372 275.456V281H309.38V270.512H311.372V272.648C311.756 271.448 312.836 270.224 314.348 270.224C314.996 270.224 315.476 270.392 315.836 270.704ZM323.712 276.32V275.816L321.36 276.32C319.704 276.68 318.648 276.992 318.648 278.264C318.648 279.152 319.248 279.824 320.448 279.824C322.296 279.824 323.712 278.432 323.712 276.32ZM325.632 274.232V278.936C325.632 279.488 325.944 279.752 326.448 279.752C326.688 279.752 327.072 279.68 327.36 279.512V280.592C327 280.952 326.568 281.216 325.752 281.216C324.672 281.216 323.904 280.4 323.784 279.152C323.208 280.376 321.72 281.288 320.016 281.288C317.976 281.288 316.656 280.184 316.656 278.384C316.656 276.392 318.36 275.576 320.88 275.072L323.712 274.496V274.088C323.712 272.648 322.872 271.76 321.408 271.76C319.896 271.76 319.08 272.648 318.768 273.872L316.992 273.632C317.4 271.664 318.96 270.224 321.432 270.224C324.072 270.224 325.632 271.568 325.632 274.232ZM329.169 278.552V271.952H327.585V270.872L328.257 270.752C329.241 270.56 329.457 270.08 329.697 269.072L330.009 267.608H331.137V270.512H334.089V271.952H331.137V278.312C331.137 279.248 331.521 279.68 332.433 279.68C333.105 279.68 333.801 279.392 334.401 279.056V280.4C333.633 280.976 332.865 281.288 331.713 281.288C330.225 281.288 329.169 280.592 329.169 278.552ZM336.145 270.512H338.137V281H336.145V270.512ZM336.097 268.136V265.88H338.161V268.136H336.097ZM342.224 275.768C342.224 278.096 343.4 279.752 345.512 279.752C347.648 279.752 348.848 278.096 348.848 275.768C348.848 273.416 347.648 271.784 345.512 271.784C343.4 271.784 342.224 273.416 342.224 275.768ZM350.888 275.768C350.888 279.032 348.608 281.288 345.512 281.288C342.44 281.288 340.184 279.032 340.184 275.768C340.184 272.504 342.44 270.224 345.512 270.224C348.608 270.224 350.888 272.504 350.888 275.768ZM354.942 274.976V281H352.95V270.512H354.942V272.384C355.446 271.112 356.862 270.224 358.422 270.224C361.158 270.224 362.262 272.048 362.262 274.496V281H360.27V274.664C360.27 272.912 359.43 271.808 357.774 271.808C356.19 271.808 354.942 273.056 354.942 274.976Z" fill="white"/>
<path d="M538.118 224.08V220.88C540.934 220.88 542.278 219.92 543.014 217.808H546.758V238H541.894V224.08H538.118ZM564.001 217.84V229.424H566.753V233.488H564.001V238H559.233V233.488H549.217V229.04L558.145 217.84H564.001ZM559.233 222.096L553.345 229.424H559.233V222.096ZM593.2 238H589.04L584.912 223.12H584.784V238H580.304V217.84H587.856L591.408 231.312H591.504L594.896 217.84H602.288V238H597.424V223.12H597.296L593.2 238ZM613.747 231.984V231.696L611.411 232.176C609.971 232.464 609.075 232.816 609.075 233.936C609.075 234.768 609.715 235.28 610.707 235.28C612.403 235.28 613.747 234 613.747 231.984ZM618.291 228.944V234.128C618.291 234.864 618.611 235.184 619.187 235.184C619.603 235.184 619.955 235.12 620.371 234.928V237.392C619.667 237.904 618.771 238.32 617.363 238.32C615.667 238.32 614.419 237.424 614.003 235.824C613.203 237.456 611.443 238.32 609.235 238.32C606.387 238.32 604.595 236.88 604.595 234.448C604.595 231.728 606.643 230.576 609.779 229.968L613.747 229.264V229.008C613.747 227.664 613.075 226.864 611.667 226.864C610.323 226.864 609.651 227.696 609.395 228.88L605.107 228.56C605.587 225.52 607.859 223.408 611.923 223.408C615.635 223.408 618.291 225.072 618.291 228.944ZM632.516 223.984L632.228 228.304C631.492 227.888 630.788 227.728 629.796 227.728C627.876 227.728 626.596 228.816 626.596 231.28V238H621.988V223.792H626.596V226.384C627.14 224.784 628.612 223.408 630.532 223.408C631.396 223.408 632.132 223.664 632.516 223.984ZM633.126 230.896C633.126 226.416 636.358 223.408 640.806 223.408C645.03 223.408 647.398 226.192 647.75 229.584L643.91 229.872C643.59 227.952 642.566 226.928 640.838 226.928C639.046 226.928 637.798 228.176 637.798 230.896C637.798 233.616 639.046 234.864 640.838 234.864C642.566 234.864 643.59 233.808 643.91 231.888L647.75 232.208C647.398 235.632 645.03 238.384 640.806 238.384C636.358 238.384 633.126 235.408 633.126 230.896ZM654.503 230.768V238H649.895V217.84H654.503V226C655.271 224.432 656.999 223.408 659.143 223.408C662.983 223.408 664.263 226.064 664.263 229.104V238H659.655V230.224C659.655 228.176 658.983 227.056 657.287 227.056C655.431 227.056 654.503 228.528 654.503 230.768ZM679.199 233.968H687.583V238H672.159V234.608L677.727 230.096C680.831 227.568 682.143 226.288 682.143 224.176C682.143 222.672 681.407 221.552 679.583 221.552C677.663 221.552 676.831 222.928 676.831 224.848C676.831 225.584 676.927 226.096 677.055 226.544L672.319 226.416C672.191 225.776 672.063 225.136 672.063 224.528C672.063 220.24 675.167 217.456 679.743 217.456C684.575 217.456 687.231 220.208 687.231 223.888C687.231 227.408 685.151 229.296 681.983 231.76L679.199 233.968ZM706.643 227.92C706.643 234.608 703.155 238.384 697.683 238.384C692.211 238.384 688.723 234.608 688.723 227.92C688.723 221.232 692.211 217.456 697.683 217.456C703.155 217.456 706.643 221.232 706.643 227.92ZM701.523 227.92C701.523 223.472 700.403 221.36 697.683 221.36C694.963 221.36 693.843 223.472 693.843 227.92C693.843 232.368 694.963 234.48 697.683 234.48C700.403 234.48 701.523 232.368 701.523 227.92ZM715.324 233.968H723.708V238H708.284V234.608L713.852 230.096C716.956 227.568 718.268 226.288 718.268 224.176C718.268 222.672 717.532 221.552 715.708 221.552C713.788 221.552 712.956 222.928 712.956 224.848C712.956 225.584 713.052 226.096 713.18 226.544L708.444 226.416C708.316 225.776 708.188 225.136 708.188 224.528C708.188 220.24 711.292 217.456 715.868 217.456C720.7 217.456 723.356 220.208 723.356 223.888C723.356 227.408 721.276 229.296 718.108 231.76L715.324 233.968ZM739.251 217.84V229.424H742.003V233.488H739.251V238H734.483V233.488H724.467V229.04L733.395 217.84H739.251ZM734.483 222.096L728.595 229.424H734.483V222.096ZM743.383 238V233.008H748.375V237.712C748.375 240.688 746.711 242.16 743.383 242.256V239.952C744.823 239.92 745.591 239.312 745.591 238H743.383ZM764.613 221.296C761.957 221.296 760.549 223.696 760.421 227.152C761.285 225.744 763.045 224.816 765.285 224.816C769.669 224.816 772.325 227.536 772.325 231.408C772.325 235.696 769.125 238.384 764.549 238.384C758.981 238.384 755.973 234.416 755.973 228.08C755.973 221.904 758.885 217.456 764.677 217.456C768.965 217.456 771.749 219.728 772.133 223.696L767.589 223.792C767.397 222.224 766.373 221.296 764.613 221.296ZM761.253 231.504C761.253 233.296 762.469 234.576 764.485 234.576C766.533 234.576 767.717 233.328 767.717 231.504C767.717 229.648 766.533 228.432 764.453 228.432C762.437 228.432 761.253 229.648 761.253 231.504ZM779.128 230.736V231.056C779.128 233.36 780.44 234.8 782.36 234.8C784.536 234.8 785.592 233.232 785.592 230.896C785.592 228.592 784.536 227.024 782.36 227.024C780.44 227.024 779.128 228.464 779.128 230.736ZM779.128 235.472V243.184H774.52V223.792H779.128V226.352C779.832 224.656 781.464 223.408 783.928 223.408C788.088 223.408 790.264 226.736 790.264 230.896C790.264 235.088 788.088 238.384 783.928 238.384C781.464 238.384 779.832 237.136 779.128 235.472ZM806.025 226.256C806.761 224.656 808.489 223.408 810.825 223.408C814.697 223.408 815.881 226.096 815.881 229.104V238H811.273V230.224C811.273 228.176 810.761 227.056 809.097 227.056C807.305 227.056 806.505 228.528 806.505 230.768V238H801.865V230.224C801.865 228.176 801.353 227.056 799.657 227.056C797.897 227.056 797.065 228.528 797.065 230.768V238H792.457V223.792H797.065V226C797.833 224.432 799.401 223.408 801.545 223.408C804.041 223.408 805.417 224.56 806.025 226.256ZM538.88 277.6L540.752 277.48C540.872 280.24 542.768 281.656 545.312 281.656C547.568 281.656 548.984 280.696 548.984 279.04C548.984 277.648 548.072 276.976 546.104 276.592L543.104 276.016C540.872 275.584 539.336 274.384 539.336 272.032C539.336 269.392 541.424 267.592 544.736 267.592C548.528 267.592 550.712 269.608 550.736 273.016L548.84 273.112C548.768 270.616 547.256 269.2 544.76 269.2C542.576 269.2 541.352 270.232 541.352 271.912C541.352 273.4 542.336 273.88 544.088 274.216L546.824 274.744C549.584 275.272 550.976 276.472 550.976 278.896C550.976 281.68 548.576 283.288 545.312 283.288C541.592 283.288 538.88 281.248 538.88 277.6ZM555.118 276.976V283H553.126V267.88H555.118V274.384C555.622 273.112 557.038 272.224 558.598 272.224C561.334 272.224 562.438 274.048 562.438 276.496V283H560.446V276.664C560.446 274.912 559.606 273.808 557.95 273.808C556.366 273.808 555.118 275.056 555.118 276.976ZM566.4 277.768C566.4 280.096 567.576 281.752 569.688 281.752C571.824 281.752 573.024 280.096 573.024 277.768C573.024 275.416 571.824 273.784 569.688 273.784C567.576 273.784 566.4 275.416 566.4 277.768ZM575.064 277.768C575.064 281.032 572.784 283.288 569.688 283.288C566.616 283.288 564.36 281.032 564.36 277.768C564.36 274.504 566.616 272.224 569.688 272.224C572.784 272.224 575.064 274.504 575.064 277.768ZM583.582 272.704L583.39 274.504C582.814 274.192 582.406 274.072 581.758 274.072C580.246 274.072 579.118 275.44 579.118 277.456V283H577.126V272.512H579.118V274.648C579.502 273.448 580.582 272.224 582.094 272.224C582.742 272.224 583.222 272.392 583.582 272.704ZM585.712 280.552V273.952H584.128V272.872L584.8 272.752C585.784 272.56 586 272.08 586.24 271.072L586.552 269.608H587.68V272.512H590.632V273.952H587.68V280.312C587.68 281.248 588.064 281.68 588.976 281.68C589.648 281.68 590.344 281.392 590.944 281.056V282.4C590.176 282.976 589.408 283.288 588.256 283.288C586.768 283.288 585.712 282.592 585.712 280.552ZM592.688 267.88H594.68V283H592.688V267.88ZM597.399 272.512H599.391V283H597.399V272.512ZM597.351 270.136V267.88H599.415V270.136H597.351ZM601.342 279.472L603.022 279.352C603.214 280.96 604.342 281.824 606.142 281.824C607.534 281.824 608.566 281.32 608.566 280.264C608.566 279.28 607.87 278.944 606.574 278.704L604.798 278.392C602.83 278.08 601.654 277.24 601.654 275.44C601.654 273.52 603.262 272.224 605.686 272.224C608.47 272.224 610.102 273.52 610.294 275.944L608.686 276.04C608.446 274.432 607.462 273.688 605.686 273.688C604.366 273.688 603.502 274.288 603.502 275.248C603.502 276.088 604.03 276.52 605.11 276.712L607.078 277.024C609.19 277.384 610.438 278.176 610.438 280.072C610.438 282.16 608.59 283.288 606.142 283.288C603.526 283.288 601.534 282.064 601.342 279.472ZM612.853 280.552V273.952H611.269V272.872L611.941 272.752C612.925 272.56 613.141 272.08 613.381 271.072L613.693 269.608H614.821V272.512H617.773V273.952H614.821V280.312C614.821 281.248 615.205 281.68 616.117 281.68C616.789 281.68 617.485 281.392 618.085 281.056V282.4C617.317 282.976 616.549 283.288 615.397 283.288C613.909 283.288 612.853 282.592 612.853 280.552ZM627.703 279.28L629.359 279.472C628.831 281.848 627.079 283.288 624.463 283.288C621.343 283.288 619.063 281.176 619.063 277.912C619.063 274.6 621.343 272.224 624.367 272.224C627.703 272.224 629.407 274.6 629.407 277.456V278.248H621.055C621.151 280.288 622.615 281.728 624.487 281.728C626.239 281.728 627.271 280.888 627.703 279.28ZM621.103 276.952H627.367C627.295 275.272 626.359 273.736 624.367 273.736C622.471 273.736 621.343 275.224 621.103 276.952ZM639.468 278.056V277.456C639.468 275.176 638.028 273.832 636.132 273.832C634.068 273.832 632.916 275.368 632.916 277.768C632.916 280.168 634.068 281.704 636.132 281.704C638.028 281.704 639.468 280.36 639.468 278.056ZM639.444 283V280.816C638.964 282.112 637.644 283.288 635.676 283.288C632.556 283.288 630.876 280.864 630.876 277.768C630.876 274.672 632.556 272.224 635.676 272.224C637.644 272.224 638.964 273.424 639.444 274.72V267.88H641.436V283H639.444ZM655.166 283H653.102V269.608H647.606V267.88H660.758V269.608H655.166V283ZM668.484 279.28L670.14 279.472C669.612 281.848 667.86 283.288 665.244 283.288C662.124 283.288 659.844 281.176 659.844 277.912C659.844 274.6 662.124 272.224 665.148 272.224C668.484 272.224 670.188 274.6 670.188 277.456V278.248H661.836C661.932 280.288 663.396 281.728 665.268 281.728C667.02 281.728 668.052 280.888 668.484 279.28ZM661.884 276.952H668.148C668.076 275.272 667.14 273.736 665.148 273.736C663.252 273.736 662.124 275.224 661.884 276.952ZM678.787 278.32V277.816L676.435 278.32C674.779 278.68 673.723 278.992 673.723 280.264C673.723 281.152 674.323 281.824 675.523 281.824C677.371 281.824 678.787 280.432 678.787 278.32ZM680.707 276.232V280.936C680.707 281.488 681.019 281.752 681.523 281.752C681.763 281.752 682.147 281.68 682.435 281.512V282.592C682.075 282.952 681.643 283.216 680.827 283.216C679.747 283.216 678.979 282.4 678.859 281.152C678.283 282.376 676.795 283.288 675.091 283.288C673.051 283.288 671.731 282.184 671.731 280.384C671.731 278.392 673.435 277.576 675.955 277.072L678.787 276.496V276.088C678.787 274.648 677.947 273.76 676.483 273.76C674.971 273.76 674.155 274.648 673.843 275.872L672.067 275.632C672.475 273.664 674.035 272.224 676.507 272.224C679.147 272.224 680.707 273.568 680.707 276.232ZM692.761 274.504C693.313 273.208 694.609 272.224 696.289 272.224C699.025 272.224 699.985 274.12 699.985 276.496V283H697.993V276.664C697.993 274.912 697.273 273.808 695.665 273.808C694.177 273.808 692.977 275.056 692.977 276.976V283H690.985V276.664C690.985 274.912 690.265 273.808 688.657 273.808C687.169 273.808 685.993 275.056 685.993 276.976V283H684.001V272.512H685.993V274.384C686.497 273.112 687.721 272.224 689.329 272.224C691.201 272.224 692.305 273.136 692.761 274.504ZM712.011 267.88H714.291L720.579 283H718.371L716.547 278.56H709.659L707.883 283H705.843L712.011 267.88ZM713.019 270.184L710.307 276.904H715.875L713.115 270.184H713.019ZM724.219 276.976V283H722.227V272.512H724.219V274.384C724.723 273.112 726.139 272.224 727.699 272.224C730.435 272.224 731.539 274.048 731.539 276.496V283H729.547V276.664C729.547 274.912 728.707 273.808 727.051 273.808C725.467 273.808 724.219 275.056 724.219 276.976ZM736.126 276.976V283H734.134V272.512H736.126V274.384C736.63 273.112 738.046 272.224 739.606 272.224C742.342 272.224 743.446 274.048 743.446 276.496V283H741.454V276.664C741.454 274.912 740.614 273.808 738.958 273.808C737.374 273.808 736.126 275.056 736.126 276.976ZM747.408 277.768C747.408 280.096 748.584 281.752 750.696 281.752C752.832 281.752 754.032 280.096 754.032 277.768C754.032 275.416 752.832 273.784 750.696 273.784C748.584 273.784 747.408 275.416 747.408 277.768ZM756.072 277.768C756.072 281.032 753.792 283.288 750.696 283.288C747.624 283.288 745.368 281.032 745.368 277.768C745.368 274.504 747.624 272.224 750.696 272.224C753.792 272.224 756.072 274.504 756.072 277.768ZM765.19 278.536V272.512H767.182V283H765.19V281.152C764.686 282.4 763.342 283.288 761.758 283.288C759.022 283.288 758.014 281.488 758.014 279.04V272.512H760.006V278.848C760.006 280.6 760.774 281.728 762.43 281.728C763.99 281.728 765.19 280.48 765.19 278.536ZM771.915 276.976V283H769.923V272.512H771.915V274.384C772.419 273.112 773.835 272.224 775.395 272.224C778.131 272.224 779.235 274.048 779.235 276.496V283H777.243V276.664C777.243 274.912 776.403 273.808 774.747 273.808C773.163 273.808 771.915 275.056 771.915 276.976ZM781.157 277.768C781.157 274.432 783.365 272.224 786.533 272.224C789.605 272.224 791.261 274.288 791.477 276.808L789.725 276.928C789.557 275.08 788.453 273.832 786.509 273.832C784.541 273.832 783.197 275.344 783.197 277.768C783.197 280.192 784.541 281.704 786.509 281.704C788.453 281.704 789.557 280.384 789.725 278.536L791.477 278.704C791.261 281.248 789.605 283.288 786.533 283.288C783.365 283.288 781.157 281.104 781.157 277.768ZM801.563 279.28L803.219 279.472C802.691 281.848 800.939 283.288 798.323 283.288C795.203 283.288 792.923 281.176 792.923 277.912C792.923 274.6 795.203 272.224 798.227 272.224C801.563 272.224 803.267 274.6 803.267 277.456V278.248H794.915C795.011 280.288 796.475 281.728 798.347 281.728C800.099 281.728 801.131 280.888 801.563 279.28ZM794.963 276.952H801.227C801.155 275.272 800.219 273.736 798.227 273.736C796.331 273.736 795.203 275.224 794.963 276.952ZM813.327 278.056V277.456C813.327 275.176 811.887 273.832 809.991 273.832C807.927 273.832 806.775 275.368 806.775 277.768C806.775 280.168 807.927 281.704 809.991 281.704C811.887 281.704 813.327 280.36 813.327 278.056ZM813.303 283V280.816C812.823 282.112 811.503 283.288 809.535 283.288C806.415 283.288 804.735 280.864 804.735 277.768C804.735 274.672 806.415 272.224 809.535 272.224C811.503 272.224 812.823 273.424 813.303 274.72V267.88H815.295V283H813.303Z" fill="white"/>
<path d="M937.321 222.08V218.88C940.137 218.88 941.481 217.92 942.217 215.808H945.961V236H941.097V222.08H937.321ZM955.715 231.968H964.099V236H948.675V232.608L954.243 228.096C957.347 225.568 958.659 224.288 958.659 222.176C958.659 220.672 957.923 219.552 956.099 219.552C954.179 219.552 953.347 220.928 953.347 222.848C953.347 223.584 953.443 224.096 953.571 224.544L948.835 224.416C948.707 223.776 948.579 223.136 948.579 222.528C948.579 218.24 951.683 215.456 956.259 215.456C961.091 215.456 963.747 218.208 963.747 221.888C963.747 225.408 961.667 227.296 958.499 229.76L955.715 231.968ZM965.349 229.824V225.792H973.669V229.824H965.349ZM973.977 222.08V218.88C976.793 218.88 978.137 217.92 978.873 215.808H982.617V236H977.753V222.08H973.977ZM999.86 215.84V227.424H1002.61V231.488H999.86V236H995.092V231.488H985.076V227.04L994.004 215.84H999.86ZM995.092 220.096L989.204 227.424H995.092V220.096ZM1029.06 236H1024.9L1020.77 221.12H1020.64V236H1016.16V215.84H1023.72L1027.27 229.312H1027.36L1030.76 215.84H1038.15V236H1033.28V221.12H1033.16L1029.06 236ZM1049.61 229.984V229.696L1047.27 230.176C1045.83 230.464 1044.93 230.816 1044.93 231.936C1044.93 232.768 1045.57 233.28 1046.57 233.28C1048.26 233.28 1049.61 232 1049.61 229.984ZM1054.15 226.944V232.128C1054.15 232.864 1054.47 233.184 1055.05 233.184C1055.46 233.184 1055.81 233.12 1056.23 232.928V235.392C1055.53 235.904 1054.63 236.32 1053.22 236.32C1051.53 236.32 1050.28 235.424 1049.86 233.824C1049.06 235.456 1047.3 236.32 1045.09 236.32C1042.25 236.32 1040.45 234.88 1040.45 232.448C1040.45 229.728 1042.5 228.576 1045.64 227.968L1049.61 227.264V227.008C1049.61 225.664 1048.93 224.864 1047.53 224.864C1046.18 224.864 1045.51 225.696 1045.25 226.88L1040.97 226.56C1041.45 223.52 1043.72 221.408 1047.78 221.408C1051.49 221.408 1054.15 223.072 1054.15 226.944ZM1068.38 221.984L1068.09 226.304C1067.35 225.888 1066.65 225.728 1065.66 225.728C1063.74 225.728 1062.46 226.816 1062.46 229.28V236H1057.85V221.792H1062.46V224.384C1063 222.784 1064.47 221.408 1066.39 221.408C1067.26 221.408 1067.99 221.664 1068.38 221.984ZM1068.99 228.896C1068.99 224.416 1072.22 221.408 1076.67 221.408C1080.89 221.408 1083.26 224.192 1083.61 227.584L1079.77 227.872C1079.45 225.952 1078.43 224.928 1076.7 224.928C1074.91 224.928 1073.66 226.176 1073.66 228.896C1073.66 231.616 1074.91 232.864 1076.7 232.864C1078.43 232.864 1079.45 231.808 1079.77 229.888L1083.61 230.208C1083.26 233.632 1080.89 236.384 1076.67 236.384C1072.22 236.384 1068.99 233.408 1068.99 228.896ZM1090.36 228.768V236H1085.75V215.84H1090.36V224C1091.13 222.432 1092.86 221.408 1095 221.408C1098.84 221.408 1100.12 224.064 1100.12 227.104V236H1095.51V228.224C1095.51 226.176 1094.84 225.056 1093.15 225.056C1091.29 225.056 1090.36 226.528 1090.36 228.768ZM1120.81 231.968H1129.19V236H1113.77V232.608L1119.34 228.096C1122.44 225.568 1123.75 224.288 1123.75 222.176C1123.75 220.672 1123.02 219.552 1121.19 219.552C1119.27 219.552 1118.44 220.928 1118.44 222.848C1118.44 223.584 1118.54 224.096 1118.66 224.544L1113.93 224.416C1113.8 223.776 1113.67 223.136 1113.67 222.528C1113.67 218.24 1116.78 215.456 1121.35 215.456C1126.18 215.456 1128.84 218.208 1128.84 221.888C1128.84 225.408 1126.76 227.296 1123.59 229.76L1120.81 231.968ZM1148.25 225.92C1148.25 232.608 1144.76 236.384 1139.29 236.384C1133.82 236.384 1130.33 232.608 1130.33 225.92C1130.33 219.232 1133.82 215.456 1139.29 215.456C1144.76 215.456 1148.25 219.232 1148.25 225.92ZM1143.13 225.92C1143.13 221.472 1142.01 219.36 1139.29 219.36C1136.57 219.36 1135.45 221.472 1135.45 225.92C1135.45 230.368 1136.57 232.48 1139.29 232.48C1142.01 232.48 1143.13 230.368 1143.13 225.92ZM1156.93 231.968H1165.32V236H1149.89V232.608L1155.46 228.096C1158.57 225.568 1159.88 224.288 1159.88 222.176C1159.88 220.672 1159.14 219.552 1157.32 219.552C1155.4 219.552 1154.57 220.928 1154.57 222.848C1154.57 223.584 1154.66 224.096 1154.79 224.544L1150.05 224.416C1149.93 223.776 1149.8 223.136 1149.8 222.528C1149.8 218.24 1152.9 215.456 1157.48 215.456C1162.31 215.456 1164.97 218.208 1164.97 221.888C1164.97 225.408 1162.89 227.296 1159.72 229.76L1156.93 231.968ZM1180.86 215.84V227.424H1183.61V231.488H1180.86V236H1176.09V231.488H1166.08V227.04L1175 215.84H1180.86ZM1176.09 220.096L1170.2 227.424H1176.09V220.096ZM990.159 273.44C990.159 278.096 987.039 281.288 982.647 281.288C978.231 281.288 975.135 278.096 975.135 273.44C975.135 268.784 978.231 265.592 982.647 265.592C987.039 265.592 990.159 268.784 990.159 273.44ZM987.999 273.44C987.999 269.744 985.911 267.368 982.647 267.368C979.383 267.368 977.271 269.744 977.271 273.44C977.271 277.136 979.383 279.512 982.647 279.512C985.911 279.512 987.999 277.136 987.999 273.44ZM999.19 271.952H994.822V281H992.854V271.952H991.246V270.512H992.854V269.384C992.854 267.2 994.198 265.832 996.214 265.832C997.438 265.832 998.182 266.216 998.758 266.6L998.23 267.92C997.726 267.56 997.15 267.32 996.478 267.32C995.35 267.32 994.822 268.088 994.822 269.36V270.512H999.19V269.192C999.19 266.96 1000.44 265.592 1002.5 265.592C1003.37 265.592 1004.09 265.832 1004.64 266.192L1004.18 267.56C1003.77 267.272 1003.34 267.104 1002.79 267.104C1001.66 267.104 1001.16 267.896 1001.16 269.144V270.512H1003.97V271.952H1001.16V281H999.19V271.952ZM1005.53 265.88H1007.52V281H1005.53V265.88ZM1010.24 270.512H1012.23V281H1010.24V270.512ZM1010.19 268.136V265.88H1012.25V268.136H1010.19ZM1016.94 274.976V281H1014.95V270.512H1016.94V272.384C1017.44 271.112 1018.86 270.224 1020.42 270.224C1023.15 270.224 1024.26 272.048 1024.26 274.496V281H1022.27V274.664C1022.27 272.912 1021.43 271.808 1019.77 271.808C1018.19 271.808 1016.94 273.056 1016.94 274.976ZM1034.82 277.28L1036.48 277.472C1035.95 279.848 1034.2 281.288 1031.58 281.288C1028.46 281.288 1026.18 279.176 1026.18 275.912C1026.18 272.6 1028.46 270.224 1031.48 270.224C1034.82 270.224 1036.52 272.6 1036.52 275.456V276.248H1028.17C1028.27 278.288 1029.73 279.728 1031.6 279.728C1033.36 279.728 1034.39 278.888 1034.82 277.28ZM1028.22 274.952H1034.48C1034.41 273.272 1033.48 271.736 1031.48 271.736C1029.59 271.736 1028.46 273.224 1028.22 274.952ZM1045.09 281H1043V265.88H1045.09V272.36H1053.78V265.88H1055.87V281H1053.78V274.064H1045.09V281ZM1065.14 276.32V275.816L1062.79 276.32C1061.13 276.68 1060.07 276.992 1060.07 278.264C1060.07 279.152 1060.67 279.824 1061.87 279.824C1063.72 279.824 1065.14 278.432 1065.14 276.32ZM1067.06 274.232V278.936C1067.06 279.488 1067.37 279.752 1067.87 279.752C1068.11 279.752 1068.5 279.68 1068.79 279.512V280.592C1068.43 280.952 1067.99 281.216 1067.18 281.216C1066.1 281.216 1065.33 280.4 1065.21 279.152C1064.63 280.376 1063.15 281.288 1061.44 281.288C1059.4 281.288 1058.08 280.184 1058.08 278.384C1058.08 276.392 1059.79 275.576 1062.31 275.072L1065.14 274.496V274.088C1065.14 272.648 1064.3 271.76 1062.83 271.76C1061.32 271.76 1060.51 272.648 1060.19 273.872L1058.42 273.632C1058.83 271.664 1060.39 270.224 1062.86 270.224C1065.5 270.224 1067.06 271.568 1067.06 274.232ZM1069.56 275.768C1069.56 272.432 1071.77 270.224 1074.94 270.224C1078.01 270.224 1079.67 272.288 1079.88 274.808L1078.13 274.928C1077.96 273.08 1076.86 271.832 1074.92 271.832C1072.95 271.832 1071.6 273.344 1071.6 275.768C1071.6 278.192 1072.95 279.704 1074.92 279.704C1076.86 279.704 1077.96 278.384 1078.13 276.536L1079.88 276.704C1079.67 279.248 1078.01 281.288 1074.94 281.288C1071.77 281.288 1069.56 279.104 1069.56 275.768ZM1083.92 277.208V281H1081.93V265.88H1083.92V275.264L1089.2 270.512H1091.7L1086.87 274.808L1091.91 281H1089.56L1085.39 275.912L1083.92 277.208ZM1099.66 276.32V275.816L1097.31 276.32C1095.65 276.68 1094.6 276.992 1094.6 278.264C1094.6 279.152 1095.2 279.824 1096.4 279.824C1098.25 279.824 1099.66 278.432 1099.66 276.32ZM1101.58 274.232V278.936C1101.58 279.488 1101.89 279.752 1102.4 279.752C1102.64 279.752 1103.02 279.68 1103.31 279.512V280.592C1102.95 280.952 1102.52 281.216 1101.7 281.216C1100.62 281.216 1099.85 280.4 1099.73 279.152C1099.16 280.376 1097.67 281.288 1095.97 281.288C1093.93 281.288 1092.61 280.184 1092.61 278.384C1092.61 276.392 1094.31 275.576 1096.83 275.072L1099.66 274.496V274.088C1099.66 272.648 1098.82 271.76 1097.36 271.76C1095.85 271.76 1095.03 272.648 1094.72 273.872L1092.94 273.632C1093.35 271.664 1094.91 270.224 1097.38 270.224C1100.02 270.224 1101.58 271.568 1101.58 274.232ZM1105.12 278.552V271.952H1103.53V270.872L1104.21 270.752C1105.19 270.56 1105.41 270.08 1105.65 269.072L1105.96 267.608H1107.09V270.512H1110.04V271.952H1107.09V278.312C1107.09 279.248 1107.47 279.68 1108.38 279.68C1109.05 279.68 1109.75 279.392 1110.35 279.056V280.4C1109.58 280.976 1108.81 281.288 1107.66 281.288C1106.17 281.288 1105.12 280.592 1105.12 278.552ZM1114.09 274.976V281H1112.09V265.88H1114.09V272.384C1114.59 271.112 1116.01 270.224 1117.57 270.224C1120.3 270.224 1121.41 272.048 1121.41 274.496V281H1119.41V274.664C1119.41 272.912 1118.57 271.808 1116.92 271.808C1115.33 271.808 1114.09 273.056 1114.09 274.976ZM1125.37 275.768C1125.37 278.096 1126.54 279.752 1128.66 279.752C1130.79 279.752 1131.99 278.096 1131.99 275.768C1131.99 273.416 1130.79 271.784 1128.66 271.784C1126.54 271.784 1125.37 273.416 1125.37 275.768ZM1134.03 275.768C1134.03 279.032 1131.75 281.288 1128.66 281.288C1125.58 281.288 1123.33 279.032 1123.33 275.768C1123.33 272.504 1125.58 270.224 1128.66 270.224C1131.75 270.224 1134.03 272.504 1134.03 275.768ZM1138.09 274.976V281H1136.09V270.512H1138.09V272.384C1138.59 271.112 1140.01 270.224 1141.57 270.224C1144.3 270.224 1145.41 272.048 1145.41 274.496V281H1143.41V274.664C1143.41 272.912 1142.57 271.808 1140.92 271.808C1139.33 271.808 1138.09 273.056 1138.09 274.976Z" fill="white"/>
<path d="M1365.6 224.08V220.88C1368.42 220.88 1369.76 219.92 1370.5 217.808H1374.24V238H1369.38V224.08H1365.6ZM1386.46 222.192H1376.61V217.84H1391.74V221.552C1386.53 226.768 1386.01 231.632 1385.98 238H1380.67C1380.77 231.312 1382.4 226.608 1386.46 222.192ZM1412.53 238H1408.37L1404.24 223.12H1404.11V238H1399.63V217.84H1407.18L1410.74 231.312H1410.83L1414.22 217.84H1421.62V238H1416.75V223.12H1416.62L1412.53 238ZM1433.07 231.984V231.696L1430.74 232.176C1429.3 232.464 1428.4 232.816 1428.4 233.936C1428.4 234.768 1429.04 235.28 1430.03 235.28C1431.73 235.28 1433.07 234 1433.07 231.984ZM1437.62 228.944V234.128C1437.62 234.864 1437.94 235.184 1438.51 235.184C1438.93 235.184 1439.28 235.12 1439.7 234.928V237.392C1438.99 237.904 1438.1 238.32 1436.69 238.32C1434.99 238.32 1433.75 237.424 1433.33 235.824C1432.53 237.456 1430.77 238.32 1428.56 238.32C1425.71 238.32 1423.92 236.88 1423.92 234.448C1423.92 231.728 1425.97 230.576 1429.11 229.968L1433.07 229.264V229.008C1433.07 227.664 1432.4 226.864 1430.99 226.864C1429.65 226.864 1428.98 227.696 1428.72 228.88L1424.43 228.56C1424.91 225.52 1427.19 223.408 1431.25 223.408C1434.96 223.408 1437.62 225.072 1437.62 228.944ZM1451.84 223.984L1451.56 228.304C1450.82 227.888 1450.12 227.728 1449.12 227.728C1447.2 227.728 1445.92 228.816 1445.92 231.28V238H1441.32V223.792H1445.92V226.384C1446.47 224.784 1447.94 223.408 1449.86 223.408C1450.72 223.408 1451.46 223.664 1451.84 223.984ZM1452.45 230.896C1452.45 226.416 1455.69 223.408 1460.13 223.408C1464.36 223.408 1466.73 226.192 1467.08 229.584L1463.24 229.872C1462.92 227.952 1461.89 226.928 1460.17 226.928C1458.37 226.928 1457.13 228.176 1457.13 230.896C1457.13 233.616 1458.37 234.864 1460.17 234.864C1461.89 234.864 1462.92 233.808 1463.24 231.888L1467.08 232.208C1466.73 235.632 1464.36 238.384 1460.13 238.384C1455.69 238.384 1452.45 235.408 1452.45 230.896ZM1473.83 230.768V238H1469.22V217.84H1473.83V226C1474.6 224.432 1476.33 223.408 1478.47 223.408C1482.31 223.408 1483.59 226.064 1483.59 229.104V238H1478.98V230.224C1478.98 228.176 1478.31 227.056 1476.61 227.056C1474.76 227.056 1473.83 228.528 1473.83 230.768ZM1498.53 233.968H1506.91V238H1491.49V234.608L1497.06 230.096C1500.16 227.568 1501.47 226.288 1501.47 224.176C1501.47 222.672 1500.74 221.552 1498.91 221.552C1496.99 221.552 1496.16 222.928 1496.16 224.848C1496.16 225.584 1496.26 226.096 1496.38 226.544L1491.65 226.416C1491.52 225.776 1491.39 225.136 1491.39 224.528C1491.39 220.24 1494.5 217.456 1499.07 217.456C1503.9 217.456 1506.56 220.208 1506.56 223.888C1506.56 227.408 1504.48 229.296 1501.31 231.76L1498.53 233.968ZM1525.97 227.92C1525.97 234.608 1522.48 238.384 1517.01 238.384C1511.54 238.384 1508.05 234.608 1508.05 227.92C1508.05 221.232 1511.54 217.456 1517.01 217.456C1522.48 217.456 1525.97 221.232 1525.97 227.92ZM1520.85 227.92C1520.85 223.472 1519.73 221.36 1517.01 221.36C1514.29 221.36 1513.17 223.472 1513.17 227.92C1513.17 232.368 1514.29 234.48 1517.01 234.48C1519.73 234.48 1520.85 232.368 1520.85 227.92ZM1534.65 233.968H1543.04V238H1527.61V234.608L1533.18 230.096C1536.28 227.568 1537.6 226.288 1537.6 224.176C1537.6 222.672 1536.86 221.552 1535.04 221.552C1533.12 221.552 1532.28 222.928 1532.28 224.848C1532.28 225.584 1532.38 226.096 1532.51 226.544L1527.77 226.416C1527.64 225.776 1527.52 225.136 1527.52 224.528C1527.52 220.24 1530.62 217.456 1535.2 217.456C1540.03 217.456 1542.68 220.208 1542.68 223.888C1542.68 227.408 1540.6 229.296 1537.44 231.76L1534.65 233.968ZM1558.58 217.84V229.424H1561.33V233.488H1558.58V238H1553.81V233.488H1543.79V229.04L1552.72 217.84H1558.58ZM1553.81 222.096L1547.92 229.424H1553.81V222.096ZM1348.25 275.656H1351.63C1354.27 275.656 1355.54 274.576 1355.54 272.608C1355.54 270.664 1354.27 269.584 1351.63 269.584H1348.25V275.656ZM1348.25 277.36V283H1346.18V267.88H1351.68C1355.42 267.88 1357.56 269.656 1357.56 272.608C1357.56 275.584 1355.42 277.36 1351.68 277.36H1348.25ZM1365.88 272.704L1365.69 274.504C1365.11 274.192 1364.7 274.072 1364.05 274.072C1362.54 274.072 1361.41 275.44 1361.41 277.456V283H1359.42V272.512H1361.41V274.648C1361.8 273.448 1362.88 272.224 1364.39 272.224C1365.04 272.224 1365.52 272.392 1365.88 272.704ZM1375.03 279.28L1376.69 279.472C1376.16 281.848 1374.41 283.288 1371.79 283.288C1368.67 283.288 1366.39 281.176 1366.39 277.912C1366.39 274.6 1368.67 272.224 1371.7 272.224C1375.03 272.224 1376.74 274.6 1376.74 277.456V278.248H1368.38C1368.48 280.288 1369.94 281.728 1371.82 281.728C1373.57 281.728 1374.6 280.888 1375.03 279.28ZM1368.43 276.952H1374.7C1374.62 275.272 1373.69 273.736 1371.7 273.736C1369.8 273.736 1368.67 275.224 1368.43 276.952ZM1378.13 279.472L1379.81 279.352C1380 280.96 1381.13 281.824 1382.93 281.824C1384.32 281.824 1385.36 281.32 1385.36 280.264C1385.36 279.28 1384.66 278.944 1383.36 278.704L1381.59 278.392C1379.62 278.08 1378.44 277.24 1378.44 275.44C1378.44 273.52 1380.05 272.224 1382.48 272.224C1385.26 272.224 1386.89 273.52 1387.08 275.944L1385.48 276.04C1385.24 274.432 1384.25 273.688 1382.48 273.688C1381.16 273.688 1380.29 274.288 1380.29 275.248C1380.29 276.088 1380.82 276.52 1381.9 276.712L1383.87 277.024C1385.98 277.384 1387.23 278.176 1387.23 280.072C1387.23 282.16 1385.38 283.288 1382.93 283.288C1380.32 283.288 1378.32 282.064 1378.13 279.472ZM1397.3 279.28L1398.95 279.472C1398.42 281.848 1396.67 283.288 1394.06 283.288C1390.94 283.288 1388.66 281.176 1388.66 277.912C1388.66 274.6 1390.94 272.224 1393.96 272.224C1397.3 272.224 1399 274.6 1399 277.456V278.248H1390.65C1390.74 280.288 1392.21 281.728 1394.08 281.728C1395.83 281.728 1396.86 280.888 1397.3 279.28ZM1390.7 276.952H1396.96C1396.89 275.272 1395.95 273.736 1393.96 273.736C1392.06 273.736 1390.94 275.224 1390.7 276.952ZM1403.06 276.976V283H1401.07V272.512H1403.06V274.384C1403.57 273.112 1404.98 272.224 1406.54 272.224C1409.28 272.224 1410.38 274.048 1410.38 276.496V283H1408.39V276.664C1408.39 274.912 1407.55 273.808 1405.9 273.808C1404.31 273.808 1403.06 275.056 1403.06 276.976ZM1413.34 280.552V273.952H1411.75V272.872L1412.43 272.752C1413.41 272.56 1413.63 272.08 1413.87 271.072L1414.18 269.608H1415.31V272.512H1418.26V273.952H1415.31V280.312C1415.31 281.248 1415.69 281.68 1416.6 281.68C1417.27 281.68 1417.97 281.392 1418.57 281.056V282.4C1417.8 282.976 1417.03 283.288 1415.88 283.288C1414.39 283.288 1413.34 282.592 1413.34 280.552ZM1426.84 278.32V277.816L1424.49 278.32C1422.83 278.68 1421.78 278.992 1421.78 280.264C1421.78 281.152 1422.38 281.824 1423.58 281.824C1425.43 281.824 1426.84 280.432 1426.84 278.32ZM1428.76 276.232V280.936C1428.76 281.488 1429.07 281.752 1429.58 281.752C1429.82 281.752 1430.2 281.68 1430.49 281.512V282.592C1430.13 282.952 1429.7 283.216 1428.88 283.216C1427.8 283.216 1427.03 282.4 1426.91 281.152C1426.34 282.376 1424.85 283.288 1423.15 283.288C1421.11 283.288 1419.79 282.184 1419.79 280.384C1419.79 278.392 1421.49 277.576 1424.01 277.072L1426.84 276.496V276.088C1426.84 274.648 1426 273.76 1424.54 273.76C1423.03 273.76 1422.21 274.648 1421.9 275.872L1420.12 275.632C1420.53 273.664 1422.09 272.224 1424.56 272.224C1427.2 272.224 1428.76 273.568 1428.76 276.232ZM1432.3 280.552V273.952H1430.71V272.872L1431.39 272.752C1432.37 272.56 1432.59 272.08 1432.83 271.072L1433.14 269.608H1434.27V272.512H1437.22V273.952H1434.27V280.312C1434.27 281.248 1434.65 281.68 1435.56 281.68C1436.23 281.68 1436.93 281.392 1437.53 281.056V282.4C1436.76 282.976 1435.99 283.288 1434.84 283.288C1433.35 283.288 1432.3 282.592 1432.3 280.552ZM1439.27 272.512H1441.27V283H1439.27V272.512ZM1439.23 270.136V267.88H1441.29V270.136H1439.23ZM1445.35 277.768C1445.35 280.096 1446.53 281.752 1448.64 281.752C1450.78 281.752 1451.98 280.096 1451.98 277.768C1451.98 275.416 1450.78 273.784 1448.64 273.784C1446.53 273.784 1445.35 275.416 1445.35 277.768ZM1454.02 277.768C1454.02 281.032 1451.74 283.288 1448.64 283.288C1445.57 283.288 1443.31 281.032 1443.31 277.768C1443.31 274.504 1445.57 272.224 1448.64 272.224C1451.74 272.224 1454.02 274.504 1454.02 277.768ZM1458.07 276.976V283H1456.08V272.512H1458.07V274.384C1458.57 273.112 1459.99 272.224 1461.55 272.224C1464.29 272.224 1465.39 274.048 1465.39 276.496V283H1463.4V276.664C1463.4 274.912 1462.56 273.808 1460.9 273.808C1459.32 273.808 1458.07 275.056 1458.07 276.976ZM1478.83 278.32V277.816L1476.47 278.32C1474.82 278.68 1473.76 278.992 1473.76 280.264C1473.76 281.152 1474.36 281.824 1475.56 281.824C1477.41 281.824 1478.83 280.432 1478.83 278.32ZM1480.75 276.232V280.936C1480.75 281.488 1481.06 281.752 1481.56 281.752C1481.8 281.752 1482.19 281.68 1482.47 281.512V282.592C1482.11 282.952 1481.68 283.216 1480.87 283.216C1479.79 283.216 1479.02 282.4 1478.9 281.152C1478.32 282.376 1476.83 283.288 1475.13 283.288C1473.09 283.288 1471.77 282.184 1471.77 280.384C1471.77 278.392 1473.47 277.576 1475.99 277.072L1478.83 276.496V276.088C1478.83 274.648 1477.99 273.76 1476.52 273.76C1475.01 273.76 1474.19 274.648 1473.88 275.872L1472.11 275.632C1472.51 273.664 1474.07 272.224 1476.55 272.224C1479.19 272.224 1480.75 273.568 1480.75 276.232ZM1486.03 276.976V283H1484.04V272.512H1486.03V274.384C1486.54 273.112 1487.95 272.224 1489.51 272.224C1492.25 272.224 1493.35 274.048 1493.35 276.496V283H1491.36V276.664C1491.36 274.912 1490.52 273.808 1488.86 273.808C1487.28 273.808 1486.03 275.056 1486.03 276.976ZM1503.87 278.056V277.456C1503.87 275.176 1502.43 273.832 1500.53 273.832C1498.47 273.832 1497.31 275.368 1497.31 277.768C1497.31 280.168 1498.47 281.704 1500.53 281.704C1502.43 281.704 1503.87 280.36 1503.87 278.056ZM1503.84 283V280.816C1503.36 282.112 1502.04 283.288 1500.07 283.288C1496.95 283.288 1495.27 280.864 1495.27 277.768C1495.27 274.672 1496.95 272.224 1500.07 272.224C1502.04 272.224 1503.36 273.424 1503.84 274.72V267.88H1505.83V283H1503.84ZM1525.01 283H1522.85C1522.56 282.592 1522.35 281.488 1522.23 279.712C1522.13 278.032 1521.34 276.904 1519.28 276.904H1515V283H1512.96V267.88H1519.11C1522.95 267.88 1524.8 269.656 1524.8 272.344C1524.8 274.672 1523.21 275.896 1521.36 276.112C1523.21 276.472 1524.1 277.6 1524.24 279.376C1524.44 281.584 1524.51 282.448 1525.01 283ZM1515 275.248H1518.99C1521.56 275.248 1522.71 274.288 1522.71 272.416C1522.71 270.688 1521.56 269.584 1518.99 269.584H1515V275.248ZM1535.18 279.28L1536.84 279.472C1536.31 281.848 1534.56 283.288 1531.94 283.288C1528.82 283.288 1526.54 281.176 1526.54 277.912C1526.54 274.6 1528.82 272.224 1531.84 272.224C1535.18 272.224 1536.88 274.6 1536.88 277.456V278.248H1528.53C1528.63 280.288 1530.09 281.728 1531.96 281.728C1533.72 281.728 1534.75 280.888 1535.18 279.28ZM1528.58 276.952H1534.84C1534.77 275.272 1533.84 273.736 1531.84 273.736C1529.95 273.736 1528.82 275.224 1528.58 276.952ZM1538.28 279.472L1539.96 279.352C1540.15 280.96 1541.28 281.824 1543.08 281.824C1544.47 281.824 1545.5 281.32 1545.5 280.264C1545.5 279.28 1544.81 278.944 1543.51 278.704L1541.74 278.392C1539.77 278.08 1538.59 277.24 1538.59 275.44C1538.59 273.52 1540.2 272.224 1542.62 272.224C1545.41 272.224 1547.04 273.52 1547.23 275.944L1545.62 276.04C1545.38 274.432 1544.4 273.688 1542.62 273.688C1541.3 273.688 1540.44 274.288 1540.44 275.248C1540.44 276.088 1540.97 276.52 1542.05 276.712L1544.02 277.024C1546.13 277.384 1547.38 278.176 1547.38 280.072C1547.38 282.16 1545.53 283.288 1543.08 283.288C1540.46 283.288 1538.47 282.064 1538.28 279.472ZM1556.49 278.536V272.512H1558.48V283H1556.49V281.152C1555.98 282.4 1554.64 283.288 1553.05 283.288C1550.32 283.288 1549.31 281.488 1549.31 279.04V272.512H1551.3V278.848C1551.3 280.6 1552.07 281.728 1553.73 281.728C1555.29 281.728 1556.49 280.48 1556.49 278.536ZM1561.22 267.88H1563.21V283H1561.22V267.88ZM1566.29 280.552V273.952H1564.71V272.872L1565.38 272.752C1566.36 272.56 1566.58 272.08 1566.82 271.072L1567.13 269.608H1568.26V272.512H1571.21V273.952H1568.26V280.312C1568.26 281.248 1568.64 281.68 1569.55 281.68C1570.23 281.68 1570.92 281.392 1571.52 281.056V282.4C1570.75 282.976 1569.99 283.288 1568.83 283.288C1567.35 283.288 1566.29 282.592 1566.29 280.552ZM1572.5 279.472L1574.18 279.352C1574.37 280.96 1575.5 281.824 1577.3 281.824C1578.69 281.824 1579.72 281.32 1579.72 280.264C1579.72 279.28 1579.03 278.944 1577.73 278.704L1575.95 278.392C1573.99 278.08 1572.81 277.24 1572.81 275.44C1572.81 273.52 1574.42 272.224 1576.84 272.224C1579.63 272.224 1581.26 273.52 1581.45 275.944L1579.84 276.04C1579.6 274.432 1578.62 273.688 1576.84 273.688C1575.52 273.688 1574.66 274.288 1574.66 275.248C1574.66 276.088 1575.19 276.52 1576.27 276.712L1578.23 277.024C1580.35 277.384 1581.59 278.176 1581.59 280.072C1581.59 282.16 1579.75 283.288 1577.3 283.288C1574.68 283.288 1572.69 282.064 1572.5 279.472Z" fill="white"/>
</g>
<defs>
<clipPath id="clip0_244_35">
<rect width="1728" height="293" fill="white"/>
</clipPath>
</defs>
</svg>
